<mxfile host="app.diagrams.net" agent="Mozilla/5.0 (Windows NT 10.0; Win64; x64) AppleWebKit/537.36 (KHTML, like Gecko) Chrome/135.0.0.0 Safari/537.36 Edg/135.0.0.0" version="26.1.3">
  <diagram name="Page-1" id="hR05zeLPvZTEK__Hz8Ri">
    <mxGraphModel dx="3724" dy="2111" grid="1" gridSize="10" guides="1" tooltips="1" connect="1" arrows="1" fold="1" page="1" pageScale="1" pageWidth="827" pageHeight="1169" math="0" shadow="0">
      <root>
        <mxCell id="0" />
        <mxCell id="1" parent="0" />
        <mxCell id="CBi6CfC0yBlEgaD9gdYx-1" value="JeuEchecs" style="swimlane;fontStyle=1;align=center;verticalAlign=top;childLayout=stackLayout;horizontal=1;startSize=26;horizontalStack=0;resizeParent=1;resizeParentMax=0;resizeLast=0;collapsible=1;marginBottom=0;whiteSpace=wrap;html=1;fillColor=#dae8fc;strokeColor=#6c8ebf;fillStyle=auto;gradientColor=#604FFF;gradientDirection=radial;" parent="1" vertex="1">
          <mxGeometry x="-520" y="281" width="380" height="316" as="geometry" />
        </mxCell>
        <mxCell id="CBi6CfC0yBlEgaD9gdYx-182" value="-m_modele:Modele" style="text;strokeColor=none;fillColor=none;align=left;verticalAlign=top;spacingLeft=4;spacingRight=4;overflow=hidden;rotatable=0;points=[[0,0.5],[1,0.5]];portConstraint=eastwest;whiteSpace=wrap;html=1;" parent="CBi6CfC0yBlEgaD9gdYx-1" vertex="1">
          <mxGeometry y="26" width="380" height="26" as="geometry" />
        </mxCell>
        <mxCell id="CBi6CfC0yBlEgaD9gdYx-183" value="-m_vue:Vue" style="text;strokeColor=none;fillColor=none;align=left;verticalAlign=top;spacingLeft=4;spacingRight=4;overflow=hidden;rotatable=0;points=[[0,0.5],[1,0.5]];portConstraint=eastwest;whiteSpace=wrap;html=1;" parent="CBi6CfC0yBlEgaD9gdYx-1" vertex="1">
          <mxGeometry y="52" width="380" height="26" as="geometry" />
        </mxCell>
        <mxCell id="CBi6CfC0yBlEgaD9gdYx-2" value="" style="line;strokeWidth=1;fillColor=none;align=left;verticalAlign=middle;spacingTop=-1;spacingLeft=3;spacingRight=3;rotatable=0;labelPosition=right;points=[];portConstraint=eastwest;strokeColor=inherit;" parent="CBi6CfC0yBlEgaD9gdYx-1" vertex="1">
          <mxGeometry y="78" width="380" height="8" as="geometry" />
        </mxCell>
        <mxCell id="CBi6CfC0yBlEgaD9gdYx-3" value="+nouvellePartie(String joueur1,String joueur2)" style="text;strokeColor=none;fillColor=none;align=left;verticalAlign=top;spacingLeft=4;spacingRight=4;overflow=hidden;rotatable=0;points=[[0,0.5],[1,0.5]];portConstraint=eastwest;whiteSpace=wrap;html=1;" parent="CBi6CfC0yBlEgaD9gdYx-1" vertex="1">
          <mxGeometry y="86" width="380" height="22" as="geometry" />
        </mxCell>
        <mxCell id="CBi6CfC0yBlEgaD9gdYx-184" value="+selectionJoueurs()" style="text;strokeColor=none;fillColor=none;align=left;verticalAlign=top;spacingLeft=4;spacingRight=4;overflow=hidden;rotatable=0;points=[[0,0.5],[1,0.5]];portConstraint=eastwest;whiteSpace=wrap;html=1;" parent="CBi6CfC0yBlEgaD9gdYx-1" vertex="1">
          <mxGeometry y="108" width="380" height="26" as="geometry" />
        </mxCell>
        <mxCell id="CBi6CfC0yBlEgaD9gdYx-185" value="+listeDeJoueurs()" style="text;strokeColor=none;fillColor=none;align=left;verticalAlign=top;spacingLeft=4;spacingRight=4;overflow=hidden;rotatable=0;points=[[0,0.5],[1,0.5]];portConstraint=eastwest;whiteSpace=wrap;html=1;" parent="CBi6CfC0yBlEgaD9gdYx-1" vertex="1">
          <mxGeometry y="134" width="380" height="26" as="geometry" />
        </mxCell>
        <mxCell id="CBi6CfC0yBlEgaD9gdYx-187" value="+ajouterJoueur(String nom,int ELO):String" style="text;strokeColor=none;fillColor=none;align=left;verticalAlign=top;spacingLeft=4;spacingRight=4;overflow=hidden;rotatable=0;points=[[0,0.5],[1,0.5]];portConstraint=eastwest;whiteSpace=wrap;html=1;" parent="CBi6CfC0yBlEgaD9gdYx-1" vertex="1">
          <mxGeometry y="160" width="380" height="26" as="geometry" />
        </mxCell>
        <mxCell id="CBi6CfC0yBlEgaD9gdYx-188" value="+jouerCoup(int xDebut,int yDebut,int xFin,int yFin,Guid guid):String" style="text;strokeColor=none;fillColor=none;align=left;verticalAlign=top;spacingLeft=4;spacingRight=4;overflow=hidden;rotatable=0;points=[[0,0.5],[1,0.5]];portConstraint=eastwest;whiteSpace=wrap;html=1;" parent="CBi6CfC0yBlEgaD9gdYx-1" vertex="1">
          <mxGeometry y="186" width="380" height="26" as="geometry" />
        </mxCell>
        <mxCell id="CBi6CfC0yBlEgaD9gdYx-189" value="+coupPossible(int xDebut,int yDebut,Guid guid):String" style="text;strokeColor=none;fillColor=none;align=left;verticalAlign=top;spacingLeft=4;spacingRight=4;overflow=hidden;rotatable=0;points=[[0,0.5],[1,0.5]];portConstraint=eastwest;whiteSpace=wrap;html=1;" parent="CBi6CfC0yBlEgaD9gdYx-1" vertex="1">
          <mxGeometry y="212" width="380" height="26" as="geometry" />
        </mxCell>
        <mxCell id="CBi6CfC0yBlEgaD9gdYx-186" value="+supprimerJoueur(String nom):String" style="text;strokeColor=none;fillColor=none;align=left;verticalAlign=top;spacingLeft=4;spacingRight=4;overflow=hidden;rotatable=0;points=[[0,0.5],[1,0.5]];portConstraint=eastwest;whiteSpace=wrap;html=1;" parent="CBi6CfC0yBlEgaD9gdYx-1" vertex="1">
          <mxGeometry y="238" width="380" height="26" as="geometry" />
        </mxCell>
        <mxCell id="CBi6CfC0yBlEgaD9gdYx-191" value="+modifierNomJoueur(String ancienNom,String nouveauNom):String" style="text;strokeColor=none;fillColor=none;align=left;verticalAlign=top;spacingLeft=4;spacingRight=4;overflow=hidden;rotatable=0;points=[[0,0.5],[1,0.5]];portConstraint=eastwest;whiteSpace=wrap;html=1;" parent="CBi6CfC0yBlEgaD9gdYx-1" vertex="1">
          <mxGeometry y="264" width="380" height="26" as="geometry" />
        </mxCell>
        <mxCell id="CBi6CfC0yBlEgaD9gdYx-190" value="+finPartie(String joueur1S,String joueur2S,String resultat)" style="text;strokeColor=none;fillColor=none;align=left;verticalAlign=top;spacingLeft=4;spacingRight=4;overflow=hidden;rotatable=0;points=[[0,0.5],[1,0.5]];portConstraint=eastwest;whiteSpace=wrap;html=1;" parent="CBi6CfC0yBlEgaD9gdYx-1" vertex="1">
          <mxGeometry y="290" width="380" height="26" as="geometry" />
        </mxCell>
        <mxCell id="CBi6CfC0yBlEgaD9gdYx-6" value="Partie" style="swimlane;fontStyle=1;align=center;verticalAlign=top;childLayout=stackLayout;horizontal=1;startSize=26;horizontalStack=0;resizeParent=1;resizeParentMax=0;resizeLast=0;collapsible=1;marginBottom=0;whiteSpace=wrap;html=1;fillColor=#dae8fc;strokeColor=#6c8ebf;fillStyle=auto;gradientColor=#604FFF;gradientDirection=radial;" parent="1" vertex="1">
          <mxGeometry x="340" y="30" width="350" height="290" as="geometry" />
        </mxCell>
        <mxCell id="CBi6CfC0yBlEgaD9gdYx-206" value="-m_joueurBlanc:Joueur" style="text;strokeColor=none;fillColor=none;align=left;verticalAlign=top;spacingLeft=4;spacingRight=4;overflow=hidden;rotatable=0;points=[[0,0.5],[1,0.5]];portConstraint=eastwest;whiteSpace=wrap;html=1;" parent="CBi6CfC0yBlEgaD9gdYx-6" vertex="1">
          <mxGeometry y="26" width="350" height="26" as="geometry" />
        </mxCell>
        <mxCell id="CBi6CfC0yBlEgaD9gdYx-7" value="-tour:int" style="text;strokeColor=none;fillColor=none;align=left;verticalAlign=top;spacingLeft=4;spacingRight=4;overflow=hidden;rotatable=0;points=[[0,0.5],[1,0.5]];portConstraint=eastwest;whiteSpace=wrap;html=1;" parent="CBi6CfC0yBlEgaD9gdYx-6" vertex="1">
          <mxGeometry y="52" width="350" height="26" as="geometry" />
        </mxCell>
        <mxCell id="CBi6CfC0yBlEgaD9gdYx-212" value="-m_plateau:Plateau" style="text;strokeColor=none;fillColor=none;align=left;verticalAlign=top;spacingLeft=4;spacingRight=4;overflow=hidden;rotatable=0;points=[[0,0.5],[1,0.5]];portConstraint=eastwest;whiteSpace=wrap;html=1;" parent="CBi6CfC0yBlEgaD9gdYx-6" vertex="1">
          <mxGeometry y="78" width="350" height="26" as="geometry" />
        </mxCell>
        <mxCell id="CBi6CfC0yBlEgaD9gdYx-213" value="-m_mouvement:List&amp;lt;Mouvement&amp;gt;" style="text;strokeColor=none;fillColor=none;align=left;verticalAlign=top;spacingLeft=4;spacingRight=4;overflow=hidden;rotatable=0;points=[[0,0.5],[1,0.5]];portConstraint=eastwest;whiteSpace=wrap;html=1;" parent="CBi6CfC0yBlEgaD9gdYx-6" vertex="1">
          <mxGeometry y="104" width="350" height="26" as="geometry" />
        </mxCell>
        <mxCell id="CBi6CfC0yBlEgaD9gdYx-214" value="-m_plateausPrecedents:List&amp;lt;string&amp;gt;" style="text;strokeColor=none;fillColor=none;align=left;verticalAlign=top;spacingLeft=4;spacingRight=4;overflow=hidden;rotatable=0;points=[[0,0.5],[1,0.5]];portConstraint=eastwest;whiteSpace=wrap;html=1;" parent="CBi6CfC0yBlEgaD9gdYx-6" vertex="1">
          <mxGeometry y="130" width="350" height="26" as="geometry" />
        </mxCell>
        <mxCell id="CBi6CfC0yBlEgaD9gdYx-215" value="-m_guid:Guid" style="text;strokeColor=none;fillColor=none;align=left;verticalAlign=top;spacingLeft=4;spacingRight=4;overflow=hidden;rotatable=0;points=[[0,0.5],[1,0.5]];portConstraint=eastwest;whiteSpace=wrap;html=1;" parent="CBi6CfC0yBlEgaD9gdYx-6" vertex="1">
          <mxGeometry y="156" width="350" height="26" as="geometry" />
        </mxCell>
        <mxCell id="CBi6CfC0yBlEgaD9gdYx-207" value="-m_joueurNoir:Joueur" style="text;strokeColor=none;fillColor=none;align=left;verticalAlign=top;spacingLeft=4;spacingRight=4;overflow=hidden;rotatable=0;points=[[0,0.5],[1,0.5]];portConstraint=eastwest;whiteSpace=wrap;html=1;" parent="CBi6CfC0yBlEgaD9gdYx-6" vertex="1">
          <mxGeometry y="182" width="350" height="26" as="geometry" />
        </mxCell>
        <mxCell id="CBi6CfC0yBlEgaD9gdYx-12" value="" style="line;strokeWidth=1;fillColor=none;align=left;verticalAlign=middle;spacingTop=-1;spacingLeft=3;spacingRight=3;rotatable=0;labelPosition=right;points=[];portConstraint=eastwest;strokeColor=inherit;" parent="CBi6CfC0yBlEgaD9gdYx-6" vertex="1">
          <mxGeometry y="208" width="350" height="8" as="geometry" />
        </mxCell>
        <mxCell id="CBi6CfC0yBlEgaD9gdYx-216" value="+coupPossibles(int xDebut,int yDebut):String" style="text;strokeColor=none;fillColor=none;align=left;verticalAlign=top;spacingLeft=4;spacingRight=4;overflow=hidden;rotatable=0;points=[[0,0.5],[1,0.5]];portConstraint=eastwest;whiteSpace=wrap;html=1;" parent="CBi6CfC0yBlEgaD9gdYx-6" vertex="1">
          <mxGeometry y="216" width="350" height="26" as="geometry" />
        </mxCell>
        <mxCell id="CBi6CfC0yBlEgaD9gdYx-290" value="+ToString():String" style="text;strokeColor=none;fillColor=none;align=left;verticalAlign=top;spacingLeft=4;spacingRight=4;overflow=hidden;rotatable=0;points=[[0,0.5],[1,0.5]];portConstraint=eastwest;whiteSpace=wrap;html=1;" parent="CBi6CfC0yBlEgaD9gdYx-6" vertex="1">
          <mxGeometry y="242" width="350" height="26" as="geometry" />
        </mxCell>
        <mxCell id="CBi6CfC0yBlEgaD9gdYx-13" value="+jouerCoup(int xDebut,int yDebut,int xFin, int yFin):String" style="text;strokeColor=none;fillColor=none;align=left;verticalAlign=top;spacingLeft=4;spacingRight=4;overflow=hidden;rotatable=0;points=[[0,0.5],[1,0.5]];portConstraint=eastwest;whiteSpace=wrap;html=1;" parent="CBi6CfC0yBlEgaD9gdYx-6" vertex="1">
          <mxGeometry y="268" width="350" height="22" as="geometry" />
        </mxCell>
        <mxCell id="CBi6CfC0yBlEgaD9gdYx-18" value="Plateau" style="swimlane;fontStyle=1;align=center;verticalAlign=top;childLayout=stackLayout;horizontal=1;startSize=26;horizontalStack=0;resizeParent=1;resizeParentMax=0;resizeLast=0;collapsible=1;marginBottom=0;whiteSpace=wrap;html=1;fillColor=#dae8fc;strokeColor=#6c8ebf;fillStyle=auto;gradientColor=#604FFF;gradientDirection=radial;" parent="1" vertex="1">
          <mxGeometry x="1090" y="-820" width="378" height="450" as="geometry">
            <mxRectangle x="673" y="79" width="80" height="30" as="alternateBounds" />
          </mxGeometry>
        </mxCell>
        <mxCell id="CBi6CfC0yBlEgaD9gdYx-229" value="-pieces:Piece" style="text;strokeColor=none;fillColor=none;align=left;verticalAlign=top;spacingLeft=4;spacingRight=4;overflow=hidden;rotatable=0;points=[[0,0.5],[1,0.5]];portConstraint=eastwest;whiteSpace=wrap;html=1;" parent="CBi6CfC0yBlEgaD9gdYx-18" vertex="1">
          <mxGeometry y="26" width="378" height="26" as="geometry" />
        </mxCell>
        <mxCell id="CBi6CfC0yBlEgaD9gdYx-19" value="-m_derniereCaptureOuMouvPion:int" style="text;strokeColor=none;fillColor=none;align=left;verticalAlign=top;spacingLeft=4;spacingRight=4;overflow=hidden;rotatable=0;points=[[0,0.5],[1,0.5]];portConstraint=eastwest;whiteSpace=wrap;html=1;" parent="CBi6CfC0yBlEgaD9gdYx-18" vertex="1">
          <mxGeometry y="52" width="378" height="26" as="geometry" />
        </mxCell>
        <mxCell id="CBi6CfC0yBlEgaD9gdYx-20" value="" style="line;strokeWidth=1;fillColor=none;align=left;verticalAlign=middle;spacingTop=-1;spacingLeft=3;spacingRight=3;rotatable=0;labelPosition=right;points=[];portConstraint=eastwest;strokeColor=inherit;" parent="CBi6CfC0yBlEgaD9gdYx-18" vertex="1">
          <mxGeometry y="78" width="378" height="8" as="geometry" />
        </mxCell>
        <mxCell id="Jj5W_WK3f6zKs74hFXm6-1" value="+Plateau(Plateau plateau):plateau" style="text;strokeColor=none;fillColor=none;align=left;verticalAlign=top;spacingLeft=4;spacingRight=4;overflow=hidden;rotatable=0;points=[[0,0.5],[1,0.5]];portConstraint=eastwest;whiteSpace=wrap;html=1;" vertex="1" parent="CBi6CfC0yBlEgaD9gdYx-18">
          <mxGeometry y="86" width="378" height="26" as="geometry" />
        </mxCell>
        <mxCell id="Jj5W_WK3f6zKs74hFXm6-3" value="aCollision(Mouvement mouvement):bool" style="text;strokeColor=none;fillColor=none;align=left;verticalAlign=top;spacingLeft=4;spacingRight=4;overflow=hidden;rotatable=0;points=[[0,0.5],[1,0.5]];portConstraint=eastwest;whiteSpace=wrap;html=1;" vertex="1" parent="CBi6CfC0yBlEgaD9gdYx-18">
          <mxGeometry y="112" width="378" height="26" as="geometry" />
        </mxCell>
        <mxCell id="CBi6CfC0yBlEgaD9gdYx-230" value="+estEnEchec(Couleur couleur):bool" style="text;strokeColor=none;fillColor=none;align=left;verticalAlign=top;spacingLeft=4;spacingRight=4;overflow=hidden;rotatable=0;points=[[0,0.5],[1,0.5]];portConstraint=eastwest;whiteSpace=wrap;html=1;" parent="CBi6CfC0yBlEgaD9gdYx-18" vertex="1">
          <mxGeometry y="138" width="378" height="26" as="geometry" />
        </mxCell>
        <mxCell id="CBi6CfC0yBlEgaD9gdYx-21" value="+metEnEchec(Mouvement mouvement,int tour):bool" style="text;strokeColor=none;fillColor=none;align=left;verticalAlign=top;spacingLeft=4;spacingRight=4;overflow=hidden;rotatable=0;points=[[0,0.5],[1,0.5]];portConstraint=eastwest;whiteSpace=wrap;html=1;" parent="CBi6CfC0yBlEgaD9gdYx-18" vertex="1">
          <mxGeometry y="164" width="378" height="26" as="geometry" />
        </mxCell>
        <mxCell id="CBi6CfC0yBlEgaD9gdYx-231" value="+estPionFantome(int x,int y):bool" style="text;strokeColor=none;fillColor=none;align=left;verticalAlign=top;spacingLeft=4;spacingRight=4;overflow=hidden;rotatable=0;points=[[0,0.5],[1,0.5]];portConstraint=eastwest;whiteSpace=wrap;html=1;" parent="CBi6CfC0yBlEgaD9gdYx-18" vertex="1">
          <mxGeometry y="190" width="378" height="26" as="geometry" />
        </mxCell>
        <mxCell id="CBi6CfC0yBlEgaD9gdYx-232" value="+coupEstPossible(Mouvement mouvement,int tour):String" style="text;strokeColor=none;fillColor=none;align=left;verticalAlign=top;spacingLeft=4;spacingRight=4;overflow=hidden;rotatable=0;points=[[0,0.5],[1,0.5]];portConstraint=eastwest;whiteSpace=wrap;html=1;" parent="CBi6CfC0yBlEgaD9gdYx-18" vertex="1">
          <mxGeometry y="216" width="378" height="26" as="geometry" />
        </mxCell>
        <mxCell id="CBi6CfC0yBlEgaD9gdYx-233" value="+jouerCoup(Mouvement mouvement,int tour)" style="text;strokeColor=none;fillColor=none;align=left;verticalAlign=top;spacingLeft=4;spacingRight=4;overflow=hidden;rotatable=0;points=[[0,0.5],[1,0.5]];portConstraint=eastwest;whiteSpace=wrap;html=1;" parent="CBi6CfC0yBlEgaD9gdYx-18" vertex="1">
          <mxGeometry y="242" width="378" height="26" as="geometry" />
        </mxCell>
        <mxCell id="CBi6CfC0yBlEgaD9gdYx-234" value="+supprimerPiece(Piece piece)" style="text;strokeColor=none;fillColor=none;align=left;verticalAlign=top;spacingLeft=4;spacingRight=4;overflow=hidden;rotatable=0;points=[[0,0.5],[1,0.5]];portConstraint=eastwest;whiteSpace=wrap;html=1;" parent="CBi6CfC0yBlEgaD9gdYx-18" vertex="1">
          <mxGeometry y="268" width="378" height="26" as="geometry" />
        </mxCell>
        <mxCell id="CBi6CfC0yBlEgaD9gdYx-235" value="+supprimerFantomes(int tour)" style="text;strokeColor=none;fillColor=none;align=left;verticalAlign=top;spacingLeft=4;spacingRight=4;overflow=hidden;rotatable=0;points=[[0,0.5],[1,0.5]];portConstraint=eastwest;whiteSpace=wrap;html=1;" parent="CBi6CfC0yBlEgaD9gdYx-18" vertex="1">
          <mxGeometry y="294" width="378" height="26" as="geometry" />
        </mxCell>
        <mxCell id="CBi6CfC0yBlEgaD9gdYx-236" value="aCollision(Mouvement mouvement):bool" style="text;strokeColor=none;fillColor=none;align=left;verticalAlign=top;spacingLeft=4;spacingRight=4;overflow=hidden;rotatable=0;points=[[0,0.5],[1,0.5]];portConstraint=eastwest;whiteSpace=wrap;html=1;" parent="CBi6CfC0yBlEgaD9gdYx-18" vertex="1">
          <mxGeometry y="320" width="378" height="26" as="geometry" />
        </mxCell>
        <mxCell id="CBi6CfC0yBlEgaD9gdYx-289" value="+ToString():String" style="text;strokeColor=none;fillColor=none;align=left;verticalAlign=top;spacingLeft=4;spacingRight=4;overflow=hidden;rotatable=0;points=[[0,0.5],[1,0.5]];portConstraint=eastwest;whiteSpace=wrap;html=1;" parent="CBi6CfC0yBlEgaD9gdYx-18" vertex="1">
          <mxGeometry y="346" width="378" height="26" as="geometry" />
        </mxCell>
        <mxCell id="Jj5W_WK3f6zKs74hFXm6-2" value="+ nullePieceRestante():bool" style="text;strokeColor=none;fillColor=none;align=left;verticalAlign=top;spacingLeft=4;spacingRight=4;overflow=hidden;rotatable=0;points=[[0,0.5],[1,0.5]];portConstraint=eastwest;whiteSpace=wrap;html=1;" vertex="1" parent="CBi6CfC0yBlEgaD9gdYx-18">
          <mxGeometry y="372" width="378" height="26" as="geometry" />
        </mxCell>
        <mxCell id="Jj5W_WK3f6zKs74hFXm6-7" value="+ nulleBoucle():bool" style="text;strokeColor=none;fillColor=none;align=left;verticalAlign=top;spacingLeft=4;spacingRight=4;overflow=hidden;rotatable=0;points=[[0,0.5],[1,0.5]];portConstraint=eastwest;whiteSpace=wrap;html=1;" vertex="1" parent="CBi6CfC0yBlEgaD9gdYx-18">
          <mxGeometry y="398" width="378" height="26" as="geometry" />
        </mxCell>
        <mxCell id="Jj5W_WK3f6zKs74hFXm6-6" value="- trouverPosition(Piece piece) : (int,int)" style="text;strokeColor=none;fillColor=none;align=left;verticalAlign=top;spacingLeft=4;spacingRight=4;overflow=hidden;rotatable=0;points=[[0,0.5],[1,0.5]];portConstraint=eastwest;whiteSpace=wrap;html=1;" vertex="1" parent="CBi6CfC0yBlEgaD9gdYx-18">
          <mxGeometry y="424" width="378" height="26" as="geometry" />
        </mxCell>
        <mxCell id="CBi6CfC0yBlEgaD9gdYx-30" value="&lt;span style=&quot;white-space: pre;&quot;&gt;&#x9;&lt;/span&gt;Piece&lt;span style=&quot;white-space: pre;&quot;&gt;&#x9;&lt;/span&gt;*" style="swimlane;fontStyle=1;align=center;verticalAlign=top;childLayout=stackLayout;horizontal=1;startSize=26;horizontalStack=0;resizeParent=1;resizeParentMax=0;resizeLast=0;collapsible=1;marginBottom=0;whiteSpace=wrap;html=1;fillColor=#dae8fc;strokeColor=#6c8ebf;fillStyle=auto;gradientColor=#604FFF;gradientDirection=radial;" parent="1" vertex="1">
          <mxGeometry x="869" y="162" width="400" height="346" as="geometry">
            <mxRectangle x="602" y="308" width="130" height="30" as="alternateBounds" />
          </mxGeometry>
        </mxCell>
        <mxCell id="CBi6CfC0yBlEgaD9gdYx-31" value="-m_couleur:Couleur" style="text;strokeColor=none;fillColor=none;align=left;verticalAlign=top;spacingLeft=4;spacingRight=4;overflow=hidden;rotatable=0;points=[[0,0.5],[1,0.5]];portConstraint=eastwest;whiteSpace=wrap;html=1;" parent="CBi6CfC0yBlEgaD9gdYx-30" vertex="1">
          <mxGeometry y="26" width="400" height="26" as="geometry" />
        </mxCell>
        <mxCell id="CBi6CfC0yBlEgaD9gdYx-32" value="-m_dernierTourBouge:int" style="text;strokeColor=none;fillColor=none;align=left;verticalAlign=top;spacingLeft=4;spacingRight=4;overflow=hidden;rotatable=0;points=[[0,0.5],[1,0.5]];portConstraint=eastwest;whiteSpace=wrap;html=1;" parent="CBi6CfC0yBlEgaD9gdYx-30" vertex="1">
          <mxGeometry y="52" width="400" height="26" as="geometry" />
        </mxCell>
        <mxCell id="CBi6CfC0yBlEgaD9gdYx-33" value="" style="line;strokeWidth=1;fillColor=none;align=left;verticalAlign=middle;spacingTop=-1;spacingLeft=3;spacingRight=3;rotatable=0;labelPosition=right;points=[];portConstraint=eastwest;strokeColor=inherit;" parent="CBi6CfC0yBlEgaD9gdYx-30" vertex="1">
          <mxGeometry y="78" width="400" height="8" as="geometry" />
        </mxCell>
        <mxCell id="CBi6CfC0yBlEgaD9gdYx-34" value="+mouvementEstPossible(Mouvement mouvement):bool" style="text;strokeColor=none;fillColor=none;align=left;verticalAlign=top;spacingLeft=4;spacingRight=4;overflow=hidden;rotatable=0;points=[[0,0.5],[1,0.5]];portConstraint=eastwest;whiteSpace=wrap;html=1;" parent="CBi6CfC0yBlEgaD9gdYx-30" vertex="1">
          <mxGeometry y="86" width="400" height="26" as="geometry" />
        </mxCell>
        <mxCell id="CBi6CfC0yBlEgaD9gdYx-238" value="+peutColision():bool" style="text;strokeColor=none;fillColor=none;align=left;verticalAlign=top;spacingLeft=4;spacingRight=4;overflow=hidden;rotatable=0;points=[[0,0.5],[1,0.5]];portConstraint=eastwest;whiteSpace=wrap;html=1;" parent="CBi6CfC0yBlEgaD9gdYx-30" vertex="1">
          <mxGeometry y="112" width="400" height="26" as="geometry" />
        </mxCell>
        <mxCell id="CBi6CfC0yBlEgaD9gdYx-239" value="+peutInitierRoque():bool" style="text;strokeColor=none;fillColor=none;align=left;verticalAlign=top;spacingLeft=4;spacingRight=4;overflow=hidden;rotatable=0;points=[[0,0.5],[1,0.5]];portConstraint=eastwest;whiteSpace=wrap;html=1;" parent="CBi6CfC0yBlEgaD9gdYx-30" vertex="1">
          <mxGeometry y="138" width="400" height="26" as="geometry" />
        </mxCell>
        <mxCell id="CBi6CfC0yBlEgaD9gdYx-240" value="+peutRecevoirRoque():bool" style="text;strokeColor=none;fillColor=none;align=left;verticalAlign=top;spacingLeft=4;spacingRight=4;overflow=hidden;rotatable=0;points=[[0,0.5],[1,0.5]];portConstraint=eastwest;whiteSpace=wrap;html=1;" parent="CBi6CfC0yBlEgaD9gdYx-30" vertex="1">
          <mxGeometry y="164" width="400" height="26" as="geometry" />
        </mxCell>
        <mxCell id="CBi6CfC0yBlEgaD9gdYx-237" value="+captureEstPossible(Mouvement mouvement):bool" style="text;strokeColor=none;fillColor=none;align=left;verticalAlign=top;spacingLeft=4;spacingRight=4;overflow=hidden;rotatable=0;points=[[0,0.5],[1,0.5]];portConstraint=eastwest;whiteSpace=wrap;html=1;" parent="CBi6CfC0yBlEgaD9gdYx-30" vertex="1">
          <mxGeometry y="190" width="400" height="26" as="geometry" />
        </mxCell>
        <mxCell id="CBi6CfC0yBlEgaD9gdYx-242" value="+peutEnPassant():bool" style="text;strokeColor=none;fillColor=none;align=left;verticalAlign=top;spacingLeft=4;spacingRight=4;overflow=hidden;rotatable=0;points=[[0,0.5],[1,0.5]];portConstraint=eastwest;whiteSpace=wrap;html=1;" parent="CBi6CfC0yBlEgaD9gdYx-30" vertex="1">
          <mxGeometry y="216" width="400" height="26" as="geometry" />
        </mxCell>
        <mxCell id="CBi6CfC0yBlEgaD9gdYx-243" value="+estCapturable():bool" style="text;strokeColor=none;fillColor=none;align=left;verticalAlign=top;spacingLeft=4;spacingRight=4;overflow=hidden;rotatable=0;points=[[0,0.5],[1,0.5]];portConstraint=eastwest;whiteSpace=wrap;html=1;" parent="CBi6CfC0yBlEgaD9gdYx-30" vertex="1">
          <mxGeometry y="242" width="400" height="26" as="geometry" />
        </mxCell>
        <mxCell id="CBi6CfC0yBlEgaD9gdYx-244" value="+ToString():String" style="text;strokeColor=none;fillColor=none;align=left;verticalAlign=top;spacingLeft=4;spacingRight=4;overflow=hidden;rotatable=0;points=[[0,0.5],[1,0.5]];portConstraint=eastwest;whiteSpace=wrap;html=1;" parent="CBi6CfC0yBlEgaD9gdYx-30" vertex="1">
          <mxGeometry y="268" width="400" height="26" as="geometry" />
        </mxCell>
        <mxCell id="CBi6CfC0yBlEgaD9gdYx-245" value="+Clone():object" style="text;strokeColor=none;fillColor=none;align=left;verticalAlign=top;spacingLeft=4;spacingRight=4;overflow=hidden;rotatable=0;points=[[0,0.5],[1,0.5]];portConstraint=eastwest;whiteSpace=wrap;html=1;" parent="CBi6CfC0yBlEgaD9gdYx-30" vertex="1">
          <mxGeometry y="294" width="400" height="26" as="geometry" />
        </mxCell>
        <mxCell id="CBi6CfC0yBlEgaD9gdYx-241" value="+peutPromotion():bool" style="text;strokeColor=none;fillColor=none;align=left;verticalAlign=top;spacingLeft=4;spacingRight=4;overflow=hidden;rotatable=0;points=[[0,0.5],[1,0.5]];portConstraint=eastwest;whiteSpace=wrap;html=1;" parent="CBi6CfC0yBlEgaD9gdYx-30" vertex="1">
          <mxGeometry y="320" width="400" height="26" as="geometry" />
        </mxCell>
        <mxCell id="CBi6CfC0yBlEgaD9gdYx-42" value="2..32" style="text;html=1;align=center;verticalAlign=middle;resizable=0;points=[];autosize=1;strokeColor=none;fillColor=none;fontSize=14;" parent="1" vertex="1">
          <mxGeometry x="1080" y="110" width="50" height="30" as="geometry" />
        </mxCell>
        <mxCell id="CBi6CfC0yBlEgaD9gdYx-43" value="Joueur" style="swimlane;fontStyle=1;align=center;verticalAlign=top;childLayout=stackLayout;horizontal=1;startSize=26;horizontalStack=0;resizeParent=1;resizeParentMax=0;resizeLast=0;collapsible=1;marginBottom=0;whiteSpace=wrap;html=1;fillColor=#dae8fc;strokeColor=#6c8ebf;fillStyle=auto;gradientColor=#604FFF;gradientDirection=radial;" parent="1" vertex="1">
          <mxGeometry x="435" y="-331" width="160" height="112" as="geometry" />
        </mxCell>
        <mxCell id="CBi6CfC0yBlEgaD9gdYx-44" value="- m_nom : String" style="text;strokeColor=none;fillColor=none;align=left;verticalAlign=top;spacingLeft=4;spacingRight=4;overflow=hidden;rotatable=0;points=[[0,0.5],[1,0.5]];portConstraint=eastwest;whiteSpace=wrap;html=1;" parent="CBi6CfC0yBlEgaD9gdYx-43" vertex="1">
          <mxGeometry y="26" width="160" height="26" as="geometry" />
        </mxCell>
        <mxCell id="CBi6CfC0yBlEgaD9gdYx-46" value="- m_ELO : int" style="text;strokeColor=none;fillColor=none;align=left;verticalAlign=top;spacingLeft=4;spacingRight=4;overflow=hidden;rotatable=0;points=[[0,0.5],[1,0.5]];portConstraint=eastwest;whiteSpace=wrap;html=1;" parent="CBi6CfC0yBlEgaD9gdYx-43" vertex="1">
          <mxGeometry y="52" width="160" height="26" as="geometry" />
        </mxCell>
        <mxCell id="CBi6CfC0yBlEgaD9gdYx-45" value="" style="line;strokeWidth=1;fillColor=none;align=left;verticalAlign=middle;spacingTop=-1;spacingLeft=3;spacingRight=3;rotatable=0;labelPosition=right;points=[];portConstraint=eastwest;strokeColor=inherit;" parent="CBi6CfC0yBlEgaD9gdYx-43" vertex="1">
          <mxGeometry y="78" width="160" height="8" as="geometry" />
        </mxCell>
        <mxCell id="CBi6CfC0yBlEgaD9gdYx-275" value="+ToString():String" style="text;strokeColor=none;fillColor=none;align=left;verticalAlign=top;spacingLeft=4;spacingRight=4;overflow=hidden;rotatable=0;points=[[0,0.5],[1,0.5]];portConstraint=eastwest;whiteSpace=wrap;html=1;" parent="CBi6CfC0yBlEgaD9gdYx-43" vertex="1">
          <mxGeometry y="86" width="160" height="26" as="geometry" />
        </mxCell>
        <mxCell id="CBi6CfC0yBlEgaD9gdYx-47" value="1" style="endArrow=none;html=1;endSize=12;startArrow=diamondThin;startSize=14;startFill=0;edgeStyle=orthogonalEdgeStyle;align=left;verticalAlign=bottom;rounded=0;strokeWidth=2;fontSize=14;entryX=0.5;entryY=1;entryDx=0;entryDy=0;exitX=0.5;exitY=0;exitDx=0;exitDy=0;" parent="1" source="CBi6CfC0yBlEgaD9gdYx-6" target="CBi6CfC0yBlEgaD9gdYx-43" edge="1">
          <mxGeometry x="-0.7681" y="-15" relative="1" as="geometry">
            <mxPoint x="480" y="-60" as="sourcePoint" />
            <mxPoint x="460.0666666666666" y="6" as="targetPoint" />
            <Array as="points">
              <mxPoint x="515" y="-150" />
              <mxPoint x="515" y="-150" />
            </Array>
            <mxPoint as="offset" />
          </mxGeometry>
        </mxCell>
        <mxCell id="CBi6CfC0yBlEgaD9gdYx-48" value="2" style="text;html=1;align=center;verticalAlign=middle;resizable=0;points=[];autosize=1;strokeColor=none;fillColor=none;fontSize=14;" parent="1" vertex="1">
          <mxGeometry x="530" y="-210" width="30" height="30" as="geometry" />
        </mxCell>
        <mxCell id="CBi6CfC0yBlEgaD9gdYx-49" value="&lt;font style=&quot;font-size: 14px;&quot;&gt;1&lt;/font&gt;" style="endArrow=none;html=1;endSize=12;startArrow=diamondThin;startSize=14;startFill=1;edgeStyle=orthogonalEdgeStyle;align=left;verticalAlign=bottom;rounded=0;strokeWidth=2;exitX=1;exitY=0;exitDx=0;exitDy=0;" parent="1" source="CBi6CfC0yBlEgaD9gdYx-6" edge="1">
          <mxGeometry x="-0.9107" y="30" relative="1" as="geometry">
            <mxPoint x="720" y="80" as="sourcePoint" />
            <mxPoint x="1090" y="-690" as="targetPoint" />
            <Array as="points">
              <mxPoint x="710" y="30" />
              <mxPoint x="710" y="-690" />
            </Array>
            <mxPoint as="offset" />
          </mxGeometry>
        </mxCell>
        <mxCell id="CBi6CfC0yBlEgaD9gdYx-50" value="1" style="edgeLabel;html=1;align=center;verticalAlign=middle;resizable=0;points=[];fontSize=14;" parent="CBi6CfC0yBlEgaD9gdYx-49" vertex="1" connectable="0">
          <mxGeometry x="0.6441" y="-2" relative="1" as="geometry">
            <mxPoint x="165" y="-24" as="offset" />
          </mxGeometry>
        </mxCell>
        <mxCell id="CBi6CfC0yBlEgaD9gdYx-51" value="&lt;font style=&quot;font-size: 14px;&quot;&gt;1&lt;/font&gt;" style="endArrow=none;html=1;endSize=12;startArrow=diamondThin;startSize=14;startFill=1;edgeStyle=orthogonalEdgeStyle;align=left;verticalAlign=bottom;rounded=0;entryX=-0.002;entryY=0.163;entryDx=0;entryDy=0;strokeWidth=2;exitX=1;exitY=0.5;exitDx=0;exitDy=0;entryPerimeter=0;" parent="1" source="CBi6CfC0yBlEgaD9gdYx-68" target="CBi6CfC0yBlEgaD9gdYx-212" edge="1">
          <mxGeometry x="-0.8148" y="-10" relative="1" as="geometry">
            <mxPoint x="310" y="60" as="sourcePoint" />
            <mxPoint x="322" y="123" as="targetPoint" />
            <Array as="points">
              <mxPoint x="280" y="58" />
              <mxPoint x="310" y="58" />
              <mxPoint x="310" y="113" />
              <mxPoint x="339" y="113" />
            </Array>
            <mxPoint x="10" y="-10" as="offset" />
          </mxGeometry>
        </mxCell>
        <mxCell id="CBi6CfC0yBlEgaD9gdYx-52" value="n" style="edgeLabel;html=1;align=center;verticalAlign=middle;resizable=0;points=[];fontSize=16;" parent="CBi6CfC0yBlEgaD9gdYx-51" vertex="1" connectable="0">
          <mxGeometry x="0.6441" y="-2" relative="1" as="geometry">
            <mxPoint x="4" y="11" as="offset" />
          </mxGeometry>
        </mxCell>
        <mxCell id="CBi6CfC0yBlEgaD9gdYx-53" value="Roi" style="swimlane;fontStyle=1;align=center;verticalAlign=top;childLayout=stackLayout;horizontal=1;startSize=26;horizontalStack=0;resizeParent=1;resizeParentMax=0;resizeLast=0;collapsible=1;marginBottom=0;whiteSpace=wrap;html=1;fillColor=#dae8fc;strokeColor=#6c8ebf;fillStyle=auto;gradientColor=#604FFF;gradientDirection=radial;" parent="1" vertex="1">
          <mxGeometry x="800" y="735" width="210" height="76" as="geometry" />
        </mxCell>
        <mxCell id="CBi6CfC0yBlEgaD9gdYx-54" value="" style="line;strokeWidth=1;fillColor=none;align=left;verticalAlign=middle;spacingTop=-1;spacingLeft=3;spacingRight=3;rotatable=0;labelPosition=right;points=[];portConstraint=eastwest;strokeColor=inherit;" parent="CBi6CfC0yBlEgaD9gdYx-53" vertex="1">
          <mxGeometry y="26" width="210" height="8" as="geometry" />
        </mxCell>
        <mxCell id="CBi6CfC0yBlEgaD9gdYx-257" value="+peutInitierRoque():bool" style="text;strokeColor=none;fillColor=none;align=left;verticalAlign=top;spacingLeft=4;spacingRight=4;overflow=hidden;rotatable=0;points=[[0,0.5],[1,0.5]];portConstraint=eastwest;whiteSpace=wrap;html=1;" parent="CBi6CfC0yBlEgaD9gdYx-53" vertex="1">
          <mxGeometry y="34" width="210" height="16" as="geometry" />
        </mxCell>
        <mxCell id="CBi6CfC0yBlEgaD9gdYx-259" value="+estCapturable():bool" style="text;strokeColor=none;fillColor=none;align=left;verticalAlign=top;spacingLeft=4;spacingRight=4;overflow=hidden;rotatable=0;points=[[0,0.5],[1,0.5]];portConstraint=eastwest;whiteSpace=wrap;html=1;" parent="CBi6CfC0yBlEgaD9gdYx-53" vertex="1">
          <mxGeometry y="50" width="210" height="26" as="geometry" />
        </mxCell>
        <mxCell id="CBi6CfC0yBlEgaD9gdYx-55" value="Reine" style="swimlane;fontStyle=1;align=center;verticalAlign=top;childLayout=stackLayout;horizontal=1;startSize=26;horizontalStack=0;resizeParent=1;resizeParentMax=0;resizeLast=0;collapsible=1;marginBottom=0;whiteSpace=wrap;html=1;fillColor=#dae8fc;strokeColor=#6c8ebf;fillStyle=auto;gradientColor=#604FFF;gradientDirection=radial;" parent="1" vertex="1">
          <mxGeometry x="700" y="975" width="210" height="34" as="geometry" />
        </mxCell>
        <mxCell id="CBi6CfC0yBlEgaD9gdYx-56" value="" style="line;strokeWidth=1;fillColor=none;align=left;verticalAlign=middle;spacingTop=-1;spacingLeft=3;spacingRight=3;rotatable=0;labelPosition=right;points=[];portConstraint=eastwest;strokeColor=inherit;" parent="CBi6CfC0yBlEgaD9gdYx-55" vertex="1">
          <mxGeometry y="26" width="210" height="8" as="geometry" />
        </mxCell>
        <mxCell id="CBi6CfC0yBlEgaD9gdYx-57" value="Cavalier" style="swimlane;fontStyle=1;align=center;verticalAlign=top;childLayout=stackLayout;horizontal=1;startSize=26;horizontalStack=0;resizeParent=1;resizeParentMax=0;resizeLast=0;collapsible=1;marginBottom=0;whiteSpace=wrap;html=1;fillColor=#dae8fc;strokeColor=#6c8ebf;fillStyle=auto;gradientColor=#604FFF;gradientDirection=radial;" parent="1" vertex="1">
          <mxGeometry x="1390" y="627" width="210" height="60" as="geometry" />
        </mxCell>
        <mxCell id="CBi6CfC0yBlEgaD9gdYx-58" value="" style="line;strokeWidth=1;fillColor=none;align=left;verticalAlign=middle;spacingTop=-1;spacingLeft=3;spacingRight=3;rotatable=0;labelPosition=right;points=[];portConstraint=eastwest;strokeColor=inherit;" parent="CBi6CfC0yBlEgaD9gdYx-57" vertex="1">
          <mxGeometry y="26" width="210" height="8" as="geometry" />
        </mxCell>
        <mxCell id="CBi6CfC0yBlEgaD9gdYx-249" value="+peutColision():bool" style="text;strokeColor=none;fillColor=none;align=left;verticalAlign=top;spacingLeft=4;spacingRight=4;overflow=hidden;rotatable=0;points=[[0,0.5],[1,0.5]];portConstraint=eastwest;whiteSpace=wrap;html=1;" parent="CBi6CfC0yBlEgaD9gdYx-57" vertex="1">
          <mxGeometry y="34" width="210" height="26" as="geometry" />
        </mxCell>
        <mxCell id="CBi6CfC0yBlEgaD9gdYx-59" value="Fou" style="swimlane;fontStyle=1;align=center;verticalAlign=top;childLayout=stackLayout;horizontal=1;startSize=26;horizontalStack=0;resizeParent=1;resizeParentMax=0;resizeLast=0;collapsible=1;marginBottom=0;whiteSpace=wrap;html=1;fillColor=#dae8fc;strokeColor=#6c8ebf;fillStyle=auto;gradientColor=#604FFF;gradientDirection=radial;" parent="1" vertex="1">
          <mxGeometry x="1139" y="975" width="211" height="34" as="geometry" />
        </mxCell>
        <mxCell id="CBi6CfC0yBlEgaD9gdYx-60" value="" style="line;strokeWidth=1;fillColor=none;align=left;verticalAlign=middle;spacingTop=-1;spacingLeft=3;spacingRight=3;rotatable=0;labelPosition=right;points=[];portConstraint=eastwest;strokeColor=inherit;" parent="CBi6CfC0yBlEgaD9gdYx-59" vertex="1">
          <mxGeometry y="26" width="211" height="8" as="geometry" />
        </mxCell>
        <mxCell id="CBi6CfC0yBlEgaD9gdYx-61" value="Pion" style="swimlane;fontStyle=1;align=center;verticalAlign=top;childLayout=stackLayout;horizontal=1;startSize=26;horizontalStack=0;resizeParent=1;resizeParentMax=0;resizeLast=0;collapsible=1;marginBottom=0;whiteSpace=wrap;html=1;fillColor=#dae8fc;strokeColor=#6c8ebf;fillStyle=auto;gradientColor=#604FFF;gradientDirection=radial;" parent="1" vertex="1">
          <mxGeometry x="920" y="1045" width="210" height="126" as="geometry" />
        </mxCell>
        <mxCell id="CBi6CfC0yBlEgaD9gdYx-63" value="" style="line;strokeWidth=1;fillColor=none;align=left;verticalAlign=middle;spacingTop=-1;spacingLeft=3;spacingRight=3;rotatable=0;labelPosition=right;points=[];portConstraint=eastwest;strokeColor=inherit;" parent="CBi6CfC0yBlEgaD9gdYx-61" vertex="1">
          <mxGeometry y="26" width="210" height="8" as="geometry" />
        </mxCell>
        <mxCell id="CBi6CfC0yBlEgaD9gdYx-267" value="+captureEstPossible(Mouvement mouvement):bool" style="text;strokeColor=none;fillColor=none;align=left;verticalAlign=top;spacingLeft=4;spacingRight=4;overflow=hidden;rotatable=0;points=[[0,0.5],[1,0.5]];portConstraint=eastwest;whiteSpace=wrap;html=1;" parent="CBi6CfC0yBlEgaD9gdYx-61" vertex="1">
          <mxGeometry y="34" width="210" height="40" as="geometry" />
        </mxCell>
        <mxCell id="CBi6CfC0yBlEgaD9gdYx-268" value="+peutEnPassant():bool" style="text;strokeColor=none;fillColor=none;align=left;verticalAlign=top;spacingLeft=4;spacingRight=4;overflow=hidden;rotatable=0;points=[[0,0.5],[1,0.5]];portConstraint=eastwest;whiteSpace=wrap;html=1;" parent="CBi6CfC0yBlEgaD9gdYx-61" vertex="1">
          <mxGeometry y="74" width="210" height="26" as="geometry" />
        </mxCell>
        <mxCell id="CBi6CfC0yBlEgaD9gdYx-269" value="+peutPromotion():bool" style="text;strokeColor=none;fillColor=none;align=left;verticalAlign=top;spacingLeft=4;spacingRight=4;overflow=hidden;rotatable=0;points=[[0,0.5],[1,0.5]];portConstraint=eastwest;whiteSpace=wrap;html=1;" parent="CBi6CfC0yBlEgaD9gdYx-61" vertex="1">
          <mxGeometry y="100" width="210" height="26" as="geometry" />
        </mxCell>
        <mxCell id="CBi6CfC0yBlEgaD9gdYx-64" value="Tour" style="swimlane;fontStyle=1;align=center;verticalAlign=top;childLayout=stackLayout;horizontal=1;startSize=26;horizontalStack=0;resizeParent=1;resizeParentMax=0;resizeLast=0;collapsible=1;marginBottom=0;whiteSpace=wrap;html=1;fillColor=#dae8fc;strokeColor=#6c8ebf;fillStyle=auto;gradientColor=#604FFF;gradientDirection=radial;" parent="1" vertex="1">
          <mxGeometry x="1060" y="735" width="210" height="60" as="geometry" />
        </mxCell>
        <mxCell id="CBi6CfC0yBlEgaD9gdYx-65" value="" style="line;strokeWidth=1;fillColor=none;align=left;verticalAlign=middle;spacingTop=-1;spacingLeft=3;spacingRight=3;rotatable=0;labelPosition=right;points=[];portConstraint=eastwest;strokeColor=inherit;" parent="CBi6CfC0yBlEgaD9gdYx-64" vertex="1">
          <mxGeometry y="26" width="210" height="8" as="geometry" />
        </mxCell>
        <mxCell id="CBi6CfC0yBlEgaD9gdYx-254" value="+peutRecevoirRoque():bool" style="text;strokeColor=none;fillColor=none;align=left;verticalAlign=top;spacingLeft=4;spacingRight=4;overflow=hidden;rotatable=0;points=[[0,0.5],[1,0.5]];portConstraint=eastwest;whiteSpace=wrap;html=1;" parent="CBi6CfC0yBlEgaD9gdYx-64" vertex="1">
          <mxGeometry y="34" width="210" height="26" as="geometry" />
        </mxCell>
        <mxCell id="CBi6CfC0yBlEgaD9gdYx-66" value="" style="endArrow=block;endFill=0;endSize=12;html=1;rounded=0;edgeStyle=orthogonalEdgeStyle;strokeWidth=2;entryX=0.404;entryY=1.013;entryDx=0;entryDy=0;entryPerimeter=0;exitX=0;exitY=0.5;exitDx=0;exitDy=0;" parent="1" target="CBi6CfC0yBlEgaD9gdYx-241" edge="1">
          <mxGeometry width="160" relative="1" as="geometry">
            <mxPoint x="1390" y="679" as="sourcePoint" />
            <mxPoint x="1030" y="590" as="targetPoint" />
            <Array as="points">
              <mxPoint x="1390" y="680" />
              <mxPoint x="1031" y="680" />
            </Array>
          </mxGeometry>
        </mxCell>
        <mxCell id="CBi6CfC0yBlEgaD9gdYx-67" value="Modele" style="swimlane;fontStyle=1;align=center;verticalAlign=top;childLayout=stackLayout;horizontal=1;startSize=26;horizontalStack=0;resizeParent=1;resizeParentMax=0;resizeLast=0;collapsible=1;marginBottom=0;whiteSpace=wrap;html=1;fillColor=#dae8fc;strokeColor=#6c8ebf;fillStyle=auto;gradientColor=#604FFF;gradientDirection=radial;" parent="1" vertex="1">
          <mxGeometry x="-20" y="30" width="300" height="500" as="geometry" />
        </mxCell>
        <mxCell id="CBi6CfC0yBlEgaD9gdYx-68" value="- joueurs : list&amp;lt;Joueur&amp;gt;" style="text;strokeColor=none;fillColor=none;align=left;verticalAlign=top;spacingLeft=4;spacingRight=4;overflow=hidden;rotatable=0;points=[[0,0.5],[1,0.5]];portConstraint=eastwest;whiteSpace=wrap;html=1;" parent="CBi6CfC0yBlEgaD9gdYx-67" vertex="1">
          <mxGeometry y="26" width="300" height="26" as="geometry" />
        </mxCell>
        <mxCell id="CBi6CfC0yBlEgaD9gdYx-69" value="- parties : list&amp;lt;Partie&amp;gt;" style="text;strokeColor=none;fillColor=none;align=left;verticalAlign=top;spacingLeft=4;spacingRight=4;overflow=hidden;rotatable=0;points=[[0,0.5],[1,0.5]];portConstraint=eastwest;whiteSpace=wrap;html=1;" parent="CBi6CfC0yBlEgaD9gdYx-67" vertex="1">
          <mxGeometry y="52" width="300" height="26" as="geometry" />
        </mxCell>
        <mxCell id="CBi6CfC0yBlEgaD9gdYx-70" value="" style="line;strokeWidth=1;fillColor=none;align=left;verticalAlign=middle;spacingTop=-1;spacingLeft=3;spacingRight=3;rotatable=0;labelPosition=right;points=[];portConstraint=eastwest;strokeColor=inherit;" parent="CBi6CfC0yBlEgaD9gdYx-67" vertex="1">
          <mxGeometry y="78" width="300" height="8" as="geometry" />
        </mxCell>
        <mxCell id="CBi6CfC0yBlEgaD9gdYx-71" value="+nouvellePartie(Guid guid,Joueur jouerBlanc,Joueur joueurNoir):String" style="text;strokeColor=none;fillColor=none;align=left;verticalAlign=top;spacingLeft=4;spacingRight=4;overflow=hidden;rotatable=0;points=[[0,0.5],[1,0.5]];portConstraint=eastwest;whiteSpace=wrap;html=1;" parent="CBi6CfC0yBlEgaD9gdYx-67" vertex="1">
          <mxGeometry y="86" width="300" height="34" as="geometry" />
        </mxCell>
        <mxCell id="CBi6CfC0yBlEgaD9gdYx-194" value="+saveListJoueurs()" style="text;strokeColor=none;fillColor=none;align=left;verticalAlign=top;spacingLeft=4;spacingRight=4;overflow=hidden;rotatable=0;points=[[0,0.5],[1,0.5]];portConstraint=eastwest;whiteSpace=wrap;html=1;" parent="CBi6CfC0yBlEgaD9gdYx-67" vertex="1">
          <mxGeometry y="120" width="300" height="26" as="geometry" />
        </mxCell>
        <mxCell id="CBi6CfC0yBlEgaD9gdYx-193" value="+saveJoueur(Joueur joueur)" style="text;strokeColor=none;fillColor=none;align=left;verticalAlign=top;spacingLeft=4;spacingRight=4;overflow=hidden;rotatable=0;points=[[0,0.5],[1,0.5]];portConstraint=eastwest;whiteSpace=wrap;html=1;" parent="CBi6CfC0yBlEgaD9gdYx-67" vertex="1">
          <mxGeometry y="146" width="300" height="26" as="geometry" />
        </mxCell>
        <mxCell id="CBi6CfC0yBlEgaD9gdYx-195" value="+copierFichierJoueurs()" style="text;strokeColor=none;fillColor=none;align=left;verticalAlign=top;spacingLeft=4;spacingRight=4;overflow=hidden;rotatable=0;points=[[0,0.5],[1,0.5]];portConstraint=eastwest;whiteSpace=wrap;html=1;" parent="CBi6CfC0yBlEgaD9gdYx-67" vertex="1">
          <mxGeometry y="172" width="300" height="26" as="geometry" />
        </mxCell>
        <mxCell id="CBi6CfC0yBlEgaD9gdYx-196" value="+supprimerJoueur(String nom):String" style="text;strokeColor=none;fillColor=none;align=left;verticalAlign=top;spacingLeft=4;spacingRight=4;overflow=hidden;rotatable=0;points=[[0,0.5],[1,0.5]];portConstraint=eastwest;whiteSpace=wrap;html=1;" parent="CBi6CfC0yBlEgaD9gdYx-67" vertex="1">
          <mxGeometry y="198" width="300" height="26" as="geometry" />
        </mxCell>
        <mxCell id="CBi6CfC0yBlEgaD9gdYx-198" value="+lireJoueur(Guid guid)" style="text;strokeColor=none;fillColor=none;align=left;verticalAlign=top;spacingLeft=4;spacingRight=4;overflow=hidden;rotatable=0;points=[[0,0.5],[1,0.5]];portConstraint=eastwest;whiteSpace=wrap;html=1;" parent="CBi6CfC0yBlEgaD9gdYx-67" vertex="1">
          <mxGeometry y="224" width="300" height="26" as="geometry" />
        </mxCell>
        <mxCell id="CBi6CfC0yBlEgaD9gdYx-197" value="+ajouterJoueur(String nom, int elo):String" style="text;strokeColor=none;fillColor=none;align=left;verticalAlign=top;spacingLeft=4;spacingRight=4;overflow=hidden;rotatable=0;points=[[0,0.5],[1,0.5]];portConstraint=eastwest;whiteSpace=wrap;html=1;" parent="CBi6CfC0yBlEgaD9gdYx-67" vertex="1">
          <mxGeometry y="250" width="300" height="26" as="geometry" />
        </mxCell>
        <mxCell id="CBi6CfC0yBlEgaD9gdYx-199" value="+getJoueurs():String" style="text;strokeColor=none;fillColor=none;align=left;verticalAlign=top;spacingLeft=4;spacingRight=4;overflow=hidden;rotatable=0;points=[[0,0.5],[1,0.5]];portConstraint=eastwest;whiteSpace=wrap;html=1;" parent="CBi6CfC0yBlEgaD9gdYx-67" vertex="1">
          <mxGeometry y="276" width="300" height="26" as="geometry" />
        </mxCell>
        <mxCell id="CBi6CfC0yBlEgaD9gdYx-200" value="+jouerCoup(int xDebut,int yDebut,int xFin,int yFin,Guid guid):String" style="text;strokeColor=none;fillColor=none;align=left;verticalAlign=top;spacingLeft=4;spacingRight=4;overflow=hidden;rotatable=0;points=[[0,0.5],[1,0.5]];portConstraint=eastwest;whiteSpace=wrap;html=1;" parent="CBi6CfC0yBlEgaD9gdYx-67" vertex="1">
          <mxGeometry y="302" width="300" height="36" as="geometry" />
        </mxCell>
        <mxCell id="CBi6CfC0yBlEgaD9gdYx-201" value="+coupPossibles(int xDebut, int yDebut,Guid guid):String" style="text;strokeColor=none;fillColor=none;align=left;verticalAlign=top;spacingLeft=4;spacingRight=4;overflow=hidden;rotatable=0;points=[[0,0.5],[1,0.5]];portConstraint=eastwest;whiteSpace=wrap;html=1;" parent="CBi6CfC0yBlEgaD9gdYx-67" vertex="1">
          <mxGeometry y="338" width="300" height="40" as="geometry" />
        </mxCell>
        <mxCell id="CBi6CfC0yBlEgaD9gdYx-202" value="+eloCalcul(int elo1,int elo2,String resultat):int" style="text;strokeColor=none;fillColor=none;align=left;verticalAlign=top;spacingLeft=4;spacingRight=4;overflow=hidden;rotatable=0;points=[[0,0.5],[1,0.5]];portConstraint=eastwest;whiteSpace=wrap;html=1;" parent="CBi6CfC0yBlEgaD9gdYx-67" vertex="1">
          <mxGeometry y="378" width="300" height="26" as="geometry" />
        </mxCell>
        <mxCell id="CBi6CfC0yBlEgaD9gdYx-203" value="+mettreAJourElo(Joueur joueur1,Joueur joueur2,String resultat)" style="text;strokeColor=none;fillColor=none;align=left;verticalAlign=top;spacingLeft=4;spacingRight=4;overflow=hidden;rotatable=0;points=[[0,0.5],[1,0.5]];portConstraint=eastwest;whiteSpace=wrap;html=1;" parent="CBi6CfC0yBlEgaD9gdYx-67" vertex="1">
          <mxGeometry y="404" width="300" height="38" as="geometry" />
        </mxCell>
        <mxCell id="CBi6CfC0yBlEgaD9gdYx-205" value="+modifierNomJoueur(Joueur joueur,String nouveauNom):String" style="text;strokeColor=none;fillColor=none;align=left;verticalAlign=top;spacingLeft=4;spacingRight=4;overflow=hidden;rotatable=0;points=[[0,0.5],[1,0.5]];portConstraint=eastwest;whiteSpace=wrap;html=1;" parent="CBi6CfC0yBlEgaD9gdYx-67" vertex="1">
          <mxGeometry y="442" width="300" height="32" as="geometry" />
        </mxCell>
        <mxCell id="CBi6CfC0yBlEgaD9gdYx-204" value="+trouverJoueurParNom(String nom):Joueur" style="text;strokeColor=none;fillColor=none;align=left;verticalAlign=top;spacingLeft=4;spacingRight=4;overflow=hidden;rotatable=0;points=[[0,0.5],[1,0.5]];portConstraint=eastwest;whiteSpace=wrap;html=1;" parent="CBi6CfC0yBlEgaD9gdYx-67" vertex="1">
          <mxGeometry y="474" width="300" height="26" as="geometry" />
        </mxCell>
        <mxCell id="CBi6CfC0yBlEgaD9gdYx-75" value="" style="endArrow=diamondThin;endFill=1;endSize=24;html=1;rounded=0;strokeWidth=2;exitX=0;exitY=0.5;exitDx=0;exitDy=0;edgeStyle=orthogonalEdgeStyle;entryX=1;entryY=0.5;entryDx=0;entryDy=0;" parent="1" source="CBi6CfC0yBlEgaD9gdYx-195" target="CBi6CfC0yBlEgaD9gdYx-189" edge="1">
          <mxGeometry width="160" relative="1" as="geometry">
            <mxPoint x="-40.000000000000455" y="100" as="sourcePoint" />
            <mxPoint x="-100" y="365" as="targetPoint" />
            <Array as="points">
              <mxPoint x="-20" y="210" />
              <mxPoint x="-100" y="210" />
              <mxPoint x="-100" y="506" />
            </Array>
          </mxGeometry>
        </mxCell>
        <mxCell id="CBi6CfC0yBlEgaD9gdYx-76" value="1" style="text;html=1;align=center;verticalAlign=middle;resizable=0;points=[];autosize=1;strokeColor=none;fillColor=none;fontSize=14;" parent="1" vertex="1">
          <mxGeometry x="-80" y="220" width="30" height="30" as="geometry" />
        </mxCell>
        <mxCell id="CBi6CfC0yBlEgaD9gdYx-77" value="1" style="text;html=1;align=center;verticalAlign=middle;resizable=0;points=[];autosize=1;strokeColor=none;fillColor=none;fontSize=14;" parent="1" vertex="1">
          <mxGeometry x="-100" y="450" width="30" height="30" as="geometry" />
        </mxCell>
        <mxCell id="CBi6CfC0yBlEgaD9gdYx-78" value="" style="endArrow=diamondThin;endFill=1;endSize=24;html=1;rounded=0;entryX=0.5;entryY=0;entryDx=0;entryDy=0;exitX=0;exitY=0.5;exitDx=0;exitDy=0;edgeStyle=orthogonalEdgeStyle;strokeWidth=2;" parent="1" source="CBi6CfC0yBlEgaD9gdYx-44" target="CBi6CfC0yBlEgaD9gdYx-67" edge="1">
          <mxGeometry width="160" relative="1" as="geometry">
            <mxPoint x="80" y="330" as="sourcePoint" />
            <mxPoint x="240" y="330" as="targetPoint" />
          </mxGeometry>
        </mxCell>
        <mxCell id="CBi6CfC0yBlEgaD9gdYx-79" value="n" style="text;html=1;align=center;verticalAlign=middle;resizable=0;points=[];autosize=1;strokeColor=none;fillColor=none;fontSize=14;" parent="1" vertex="1">
          <mxGeometry x="413" y="-290" width="30" height="30" as="geometry" />
        </mxCell>
        <mxCell id="CBi6CfC0yBlEgaD9gdYx-80" value="1" style="text;html=1;align=center;verticalAlign=middle;resizable=0;points=[];autosize=1;strokeColor=none;fillColor=none;fontSize=14;" parent="1" vertex="1">
          <mxGeometry x="100" y="-260" width="30" height="30" as="geometry" />
        </mxCell>
        <mxCell id="CBi6CfC0yBlEgaD9gdYx-81" value="Mouvement" style="swimlane;fontStyle=1;align=center;verticalAlign=top;childLayout=stackLayout;horizontal=1;startSize=26;horizontalStack=0;resizeParent=1;resizeParentMax=0;resizeLast=0;collapsible=1;marginBottom=0;whiteSpace=wrap;html=1;fillColor=#dae8fc;strokeColor=#6c8ebf;fillStyle=auto;gradientColor=#604FFF;gradientDirection=radial;" parent="1" vertex="1">
          <mxGeometry x="220" y="735" width="300" height="398" as="geometry">
            <mxRectangle x="673" y="79" width="80" height="30" as="alternateBounds" />
          </mxGeometry>
        </mxCell>
        <mxCell id="CBi6CfC0yBlEgaD9gdYx-82" value="-m_xDebut:int" style="text;strokeColor=none;fillColor=none;align=left;verticalAlign=top;spacingLeft=4;spacingRight=4;overflow=hidden;rotatable=0;points=[[0,0.5],[1,0.5]];portConstraint=eastwest;whiteSpace=wrap;html=1;" parent="CBi6CfC0yBlEgaD9gdYx-81" vertex="1">
          <mxGeometry y="26" width="300" height="26" as="geometry" />
        </mxCell>
        <mxCell id="CBi6CfC0yBlEgaD9gdYx-217" value="-m_yDebut:int" style="text;strokeColor=none;fillColor=none;align=left;verticalAlign=top;spacingLeft=4;spacingRight=4;overflow=hidden;rotatable=0;points=[[0,0.5],[1,0.5]];portConstraint=eastwest;whiteSpace=wrap;html=1;" parent="CBi6CfC0yBlEgaD9gdYx-81" vertex="1">
          <mxGeometry y="52" width="300" height="26" as="geometry" />
        </mxCell>
        <mxCell id="CBi6CfC0yBlEgaD9gdYx-218" value="-m_xFin:int" style="text;strokeColor=none;fillColor=none;align=left;verticalAlign=top;spacingLeft=4;spacingRight=4;overflow=hidden;rotatable=0;points=[[0,0.5],[1,0.5]];portConstraint=eastwest;whiteSpace=wrap;html=1;" parent="CBi6CfC0yBlEgaD9gdYx-81" vertex="1">
          <mxGeometry y="78" width="300" height="26" as="geometry" />
        </mxCell>
        <mxCell id="CBi6CfC0yBlEgaD9gdYx-220" value="-m_pieceCapture:Piece" style="text;strokeColor=none;fillColor=none;align=left;verticalAlign=top;spacingLeft=4;spacingRight=4;overflow=hidden;rotatable=0;points=[[0,0.5],[1,0.5]];portConstraint=eastwest;whiteSpace=wrap;html=1;" parent="CBi6CfC0yBlEgaD9gdYx-81" vertex="1">
          <mxGeometry y="104" width="300" height="26" as="geometry" />
        </mxCell>
        <mxCell id="CBi6CfC0yBlEgaD9gdYx-221" value="-m_estReversible:bool" style="text;strokeColor=none;fillColor=none;align=left;verticalAlign=top;spacingLeft=4;spacingRight=4;overflow=hidden;rotatable=0;points=[[0,0.5],[1,0.5]];portConstraint=eastwest;whiteSpace=wrap;html=1;" parent="CBi6CfC0yBlEgaD9gdYx-81" vertex="1">
          <mxGeometry y="130" width="300" height="26" as="geometry" />
        </mxCell>
        <mxCell id="CBi6CfC0yBlEgaD9gdYx-222" value="-m_estRoque:bool" style="text;strokeColor=none;fillColor=none;align=left;verticalAlign=top;spacingLeft=4;spacingRight=4;overflow=hidden;rotatable=0;points=[[0,0.5],[1,0.5]];portConstraint=eastwest;whiteSpace=wrap;html=1;" parent="CBi6CfC0yBlEgaD9gdYx-81" vertex="1">
          <mxGeometry y="156" width="300" height="26" as="geometry" />
        </mxCell>
        <mxCell id="CBi6CfC0yBlEgaD9gdYx-223" value="-m_estCharge:bool" style="text;strokeColor=none;fillColor=none;align=left;verticalAlign=top;spacingLeft=4;spacingRight=4;overflow=hidden;rotatable=0;points=[[0,0.5],[1,0.5]];portConstraint=eastwest;whiteSpace=wrap;html=1;" parent="CBi6CfC0yBlEgaD9gdYx-81" vertex="1">
          <mxGeometry y="182" width="300" height="26" as="geometry" />
        </mxCell>
        <mxCell id="CBi6CfC0yBlEgaD9gdYx-219" value="-m_yFin:int" style="text;strokeColor=none;fillColor=none;align=left;verticalAlign=top;spacingLeft=4;spacingRight=4;overflow=hidden;rotatable=0;points=[[0,0.5],[1,0.5]];portConstraint=eastwest;whiteSpace=wrap;html=1;" parent="CBi6CfC0yBlEgaD9gdYx-81" vertex="1">
          <mxGeometry y="208" width="300" height="26" as="geometry" />
        </mxCell>
        <mxCell id="CBi6CfC0yBlEgaD9gdYx-225" value="-m_estCapture:bool" style="text;strokeColor=none;fillColor=none;align=left;verticalAlign=top;spacingLeft=4;spacingRight=4;overflow=hidden;rotatable=0;points=[[0,0.5],[1,0.5]];portConstraint=eastwest;whiteSpace=wrap;html=1;" parent="CBi6CfC0yBlEgaD9gdYx-81" vertex="1">
          <mxGeometry y="234" width="300" height="26" as="geometry" />
        </mxCell>
        <mxCell id="CBi6CfC0yBlEgaD9gdYx-226" value="-m_estCoupValidation:bool" style="text;strokeColor=none;fillColor=none;align=left;verticalAlign=top;spacingLeft=4;spacingRight=4;overflow=hidden;rotatable=0;points=[[0,0.5],[1,0.5]];portConstraint=eastwest;whiteSpace=wrap;html=1;" parent="CBi6CfC0yBlEgaD9gdYx-81" vertex="1">
          <mxGeometry y="260" width="300" height="26" as="geometry" />
        </mxCell>
        <mxCell id="CBi6CfC0yBlEgaD9gdYx-224" value="-m_estEnPassant:bool" style="text;strokeColor=none;fillColor=none;align=left;verticalAlign=top;spacingLeft=4;spacingRight=4;overflow=hidden;rotatable=0;points=[[0,0.5],[1,0.5]];portConstraint=eastwest;whiteSpace=wrap;html=1;" parent="CBi6CfC0yBlEgaD9gdYx-81" vertex="1">
          <mxGeometry y="286" width="300" height="26" as="geometry" />
        </mxCell>
        <mxCell id="CBi6CfC0yBlEgaD9gdYx-88" value="" style="line;strokeWidth=1;fillColor=none;align=left;verticalAlign=middle;spacingTop=-1;spacingLeft=3;spacingRight=3;rotatable=0;labelPosition=right;points=[];portConstraint=eastwest;strokeColor=inherit;" parent="CBi6CfC0yBlEgaD9gdYx-81" vertex="1">
          <mxGeometry y="312" width="300" height="8" as="geometry" />
        </mxCell>
        <mxCell id="CBi6CfC0yBlEgaD9gdYx-227" value="+estVertical(byte min,byte max):bool" style="text;strokeColor=none;fillColor=none;align=left;verticalAlign=top;spacingLeft=4;spacingRight=4;overflow=hidden;rotatable=0;points=[[0,0.5],[1,0.5]];portConstraint=eastwest;whiteSpace=wrap;html=1;" parent="CBi6CfC0yBlEgaD9gdYx-81" vertex="1">
          <mxGeometry y="320" width="300" height="26" as="geometry" />
        </mxCell>
        <mxCell id="CBi6CfC0yBlEgaD9gdYx-228" value="+estDiagonal(double pente,byte min,byte max):bool" style="text;strokeColor=none;fillColor=none;align=left;verticalAlign=top;spacingLeft=4;spacingRight=4;overflow=hidden;rotatable=0;points=[[0,0.5],[1,0.5]];portConstraint=eastwest;whiteSpace=wrap;html=1;" parent="CBi6CfC0yBlEgaD9gdYx-81" vertex="1">
          <mxGeometry y="346" width="300" height="26" as="geometry" />
        </mxCell>
        <mxCell id="CBi6CfC0yBlEgaD9gdYx-89" value="+estHorizontal(byte min,byte max):bool" style="text;strokeColor=none;fillColor=none;align=left;verticalAlign=top;spacingLeft=4;spacingRight=4;overflow=hidden;rotatable=0;points=[[0,0.5],[1,0.5]];portConstraint=eastwest;whiteSpace=wrap;html=1;" parent="CBi6CfC0yBlEgaD9gdYx-81" vertex="1">
          <mxGeometry y="372" width="300" height="26" as="geometry" />
        </mxCell>
        <mxCell id="CBi6CfC0yBlEgaD9gdYx-92" value="" style="endArrow=diamondThin;endFill=1;endSize=12;html=1;rounded=0;exitX=0.5;exitY=0;exitDx=0;exitDy=0;fontSize=14;strokeWidth=2;edgeStyle=orthogonalEdgeStyle;entryX=0.515;entryY=1.116;entryDx=0;entryDy=0;entryPerimeter=0;" parent="1" source="CBi6CfC0yBlEgaD9gdYx-81" target="CBi6CfC0yBlEgaD9gdYx-13" edge="1">
          <mxGeometry width="160" relative="1" as="geometry">
            <mxPoint x="130" y="260" as="sourcePoint" />
            <mxPoint x="550" y="320" as="targetPoint" />
            <Array as="points">
              <mxPoint x="370" y="360" />
              <mxPoint x="520" y="360" />
            </Array>
          </mxGeometry>
        </mxCell>
        <mxCell id="CBi6CfC0yBlEgaD9gdYx-93" value="1" style="text;html=1;align=center;verticalAlign=middle;resizable=0;points=[];autosize=1;strokeColor=none;fillColor=none;fontSize=14;" parent="1" vertex="1">
          <mxGeometry x="490" y="320" width="30" height="30" as="geometry" />
        </mxCell>
        <mxCell id="CBi6CfC0yBlEgaD9gdYx-94" value="n" style="text;html=1;align=center;verticalAlign=middle;resizable=0;points=[];autosize=1;strokeColor=none;fillColor=none;fontSize=14;" parent="1" vertex="1">
          <mxGeometry x="335" y="687" width="30" height="30" as="geometry" />
        </mxCell>
        <mxCell id="CBi6CfC0yBlEgaD9gdYx-95" value="" style="endArrow=open;endFill=1;endSize=12;html=1;rounded=0;entryX=1;entryY=0.5;entryDx=0;entryDy=0;exitX=0;exitY=0.5;exitDx=0;exitDy=0;fillColor=#f8cecc;strokeColor=#b85450;strokeWidth=3;" parent="1" target="CBi6CfC0yBlEgaD9gdYx-222" edge="1">
          <mxGeometry width="160" relative="1" as="geometry">
            <mxPoint x="870" y="402.99999999999955" as="sourcePoint" />
            <mxPoint x="520.0000000000005" y="800.0000000000005" as="targetPoint" />
          </mxGeometry>
        </mxCell>
        <mxCell id="CBi6CfC0yBlEgaD9gdYx-96" value="" style="endArrow=open;endFill=1;endSize=12;html=1;rounded=0;edgeStyle=orthogonalEdgeStyle;elbow=vertical;strokeWidth=2;entryX=1;entryY=0;entryDx=0;entryDy=0;" parent="1" target="CBi6CfC0yBlEgaD9gdYx-81" edge="1">
          <mxGeometry width="160" relative="1" as="geometry">
            <mxPoint x="1090" y="-690" as="sourcePoint" />
            <mxPoint x="585" y="409" as="targetPoint" />
            <Array as="points">
              <mxPoint x="780" y="-690" />
              <mxPoint x="780" y="420" />
              <mxPoint x="520" y="420" />
            </Array>
          </mxGeometry>
        </mxCell>
        <mxCell id="CBi6CfC0yBlEgaD9gdYx-97" value="" style="endArrow=diamondThin;endFill=0;endSize=24;html=1;rounded=0;fillColor=#dae8fc;strokeColor=#6c8ebf;strokeWidth=3;exitX=0;exitY=0.5;exitDx=0;exitDy=0;entryX=1;entryY=0.5;entryDx=0;entryDy=0;" parent="1" source="CBi6CfC0yBlEgaD9gdYx-240" edge="1" target="CBi6CfC0yBlEgaD9gdYx-217">
          <mxGeometry width="160" relative="1" as="geometry">
            <mxPoint x="790" y="330" as="sourcePoint" />
            <mxPoint x="520" y="730" as="targetPoint" />
          </mxGeometry>
        </mxCell>
        <mxCell id="CBi6CfC0yBlEgaD9gdYx-98" value="1" style="text;html=1;align=center;verticalAlign=middle;resizable=0;points=[];autosize=1;strokeColor=none;fillColor=none;fontSize=14;" parent="1" vertex="1">
          <mxGeometry x="490" y="687" width="30" height="30" as="geometry" />
        </mxCell>
        <mxCell id="CBi6CfC0yBlEgaD9gdYx-99" value="0..1" style="text;html=1;align=center;verticalAlign=middle;resizable=0;points=[];autosize=1;strokeColor=none;fillColor=none;fontSize=14;" parent="1" vertex="1">
          <mxGeometry x="817" y="330" width="50" height="30" as="geometry" />
        </mxCell>
        <mxCell id="CBi6CfC0yBlEgaD9gdYx-100" value="&lt;font style=&quot;font-size: 14px;&quot;&gt;1&lt;/font&gt;" style="endArrow=none;html=1;endSize=12;startArrow=diamondThin;startSize=14;startFill=1;edgeStyle=orthogonalEdgeStyle;align=left;verticalAlign=bottom;rounded=0;strokeWidth=2;entryX=0.5;entryY=0;entryDx=0;entryDy=0;" parent="1" target="CBi6CfC0yBlEgaD9gdYx-30" edge="1">
          <mxGeometry x="-0.9317" y="-24" relative="1" as="geometry">
            <mxPoint x="1279" y="-360" as="sourcePoint" />
            <mxPoint x="1400" y="280" as="targetPoint" />
            <Array as="points">
              <mxPoint x="1274" y="90" />
              <mxPoint x="1069" y="90" />
            </Array>
            <mxPoint as="offset" />
          </mxGeometry>
        </mxCell>
        <mxCell id="CBi6CfC0yBlEgaD9gdYx-103" value="FormMenu" style="swimlane;fontStyle=1;align=center;verticalAlign=top;childLayout=stackLayout;horizontal=1;startSize=26;horizontalStack=0;resizeParent=1;resizeParentMax=0;resizeLast=0;collapsible=1;marginBottom=0;whiteSpace=wrap;html=1;fillColor=#dae8fc;strokeColor=#6c8ebf;fillStyle=auto;gradientColor=#604FFF;gradientDirection=radial;" parent="1" vertex="1">
          <mxGeometry x="-5" y="-491" width="340" height="112" as="geometry" />
        </mxCell>
        <mxCell id="CBi6CfC0yBlEgaD9gdYx-180" value="-m_vue:Vue" style="text;strokeColor=none;fillColor=none;align=left;verticalAlign=top;spacingLeft=4;spacingRight=4;overflow=hidden;rotatable=0;points=[[0,0.5],[1,0.5]];portConstraint=eastwest;whiteSpace=wrap;html=1;" parent="CBi6CfC0yBlEgaD9gdYx-103" vertex="1">
          <mxGeometry y="26" width="340" height="26" as="geometry" />
        </mxCell>
        <mxCell id="CBi6CfC0yBlEgaD9gdYx-104" value="" style="line;strokeWidth=1;fillColor=none;align=left;verticalAlign=middle;spacingTop=-1;spacingLeft=3;spacingRight=3;rotatable=0;labelPosition=right;points=[];portConstraint=eastwest;strokeColor=inherit;" parent="CBi6CfC0yBlEgaD9gdYx-103" vertex="1">
          <mxGeometry y="52" width="340" height="8" as="geometry" />
        </mxCell>
        <mxCell id="CBi6CfC0yBlEgaD9gdYx-105" value="-button1_Click()" style="text;strokeColor=none;fillColor=none;align=left;verticalAlign=top;spacingLeft=4;spacingRight=4;overflow=hidden;rotatable=0;points=[[0,0.5],[1,0.5]];portConstraint=eastwest;whiteSpace=wrap;html=1;" parent="CBi6CfC0yBlEgaD9gdYx-103" vertex="1">
          <mxGeometry y="60" width="340" height="26" as="geometry" />
        </mxCell>
        <mxCell id="CBi6CfC0yBlEgaD9gdYx-181" value="-button2_Click()" style="text;strokeColor=none;fillColor=none;align=left;verticalAlign=top;spacingLeft=4;spacingRight=4;overflow=hidden;rotatable=0;points=[[0,0.5],[1,0.5]];portConstraint=eastwest;whiteSpace=wrap;html=1;" parent="CBi6CfC0yBlEgaD9gdYx-103" vertex="1">
          <mxGeometry y="86" width="340" height="26" as="geometry" />
        </mxCell>
        <mxCell id="CBi6CfC0yBlEgaD9gdYx-109" value="FormPartie" style="swimlane;fontStyle=1;align=center;verticalAlign=top;childLayout=stackLayout;horizontal=1;startSize=26;horizontalStack=0;resizeParent=1;resizeParentMax=0;resizeLast=0;collapsible=1;marginBottom=0;whiteSpace=wrap;html=1;fillColor=#dae8fc;strokeColor=#6c8ebf;fillStyle=auto;gradientColor=#604FFF;gradientDirection=radial;" parent="1" vertex="1">
          <mxGeometry x="-1140" y="-455" width="290" height="446" as="geometry" />
        </mxCell>
        <mxCell id="CBi6CfC0yBlEgaD9gdYx-110" value="- currentPlateau:String" style="text;strokeColor=none;fillColor=none;align=left;verticalAlign=top;spacingLeft=4;spacingRight=4;overflow=hidden;rotatable=0;points=[[0,0.5],[1,0.5]];portConstraint=eastwest;whiteSpace=wrap;html=1;" parent="CBi6CfC0yBlEgaD9gdYx-109" vertex="1">
          <mxGeometry y="26" width="290" height="26" as="geometry" />
        </mxCell>
        <mxCell id="CBi6CfC0yBlEgaD9gdYx-111" value="- coupPossibles: String" style="text;strokeColor=none;fillColor=none;align=left;verticalAlign=top;spacingLeft=4;spacingRight=4;overflow=hidden;rotatable=0;points=[[0,0.5],[1,0.5]];portConstraint=eastwest;whiteSpace=wrap;html=1;" parent="CBi6CfC0yBlEgaD9gdYx-109" vertex="1">
          <mxGeometry y="52" width="290" height="26" as="geometry" />
        </mxCell>
        <mxCell id="CBi6CfC0yBlEgaD9gdYx-156" value="- m_yDebut: int" style="text;strokeColor=none;fillColor=none;align=left;verticalAlign=top;spacingLeft=4;spacingRight=4;overflow=hidden;rotatable=0;points=[[0,0.5],[1,0.5]];portConstraint=eastwest;whiteSpace=wrap;html=1;" parent="CBi6CfC0yBlEgaD9gdYx-109" vertex="1">
          <mxGeometry y="78" width="290" height="26" as="geometry" />
        </mxCell>
        <mxCell id="CBi6CfC0yBlEgaD9gdYx-155" value="-m_xDebut: int" style="text;strokeColor=none;fillColor=none;align=left;verticalAlign=top;spacingLeft=4;spacingRight=4;overflow=hidden;rotatable=0;points=[[0,0.5],[1,0.5]];portConstraint=eastwest;whiteSpace=wrap;html=1;" parent="CBi6CfC0yBlEgaD9gdYx-109" vertex="1">
          <mxGeometry y="104" width="290" height="26" as="geometry" />
        </mxCell>
        <mxCell id="CBi6CfC0yBlEgaD9gdYx-152" value="-m_guid: Guid" style="text;strokeColor=none;fillColor=none;align=left;verticalAlign=top;spacingLeft=4;spacingRight=4;overflow=hidden;rotatable=0;points=[[0,0.5],[1,0.5]];portConstraint=eastwest;whiteSpace=wrap;html=1;" parent="CBi6CfC0yBlEgaD9gdYx-109" vertex="1">
          <mxGeometry y="130" width="290" height="26" as="geometry" />
        </mxCell>
        <mxCell id="CBi6CfC0yBlEgaD9gdYx-154" value="-m_vue: Vue" style="text;strokeColor=none;fillColor=none;align=left;verticalAlign=top;spacingLeft=4;spacingRight=4;overflow=hidden;rotatable=0;points=[[0,0.5],[1,0.5]];portConstraint=eastwest;whiteSpace=wrap;html=1;" parent="CBi6CfC0yBlEgaD9gdYx-109" vertex="1">
          <mxGeometry y="156" width="290" height="26" as="geometry" />
        </mxCell>
        <mxCell id="CBi6CfC0yBlEgaD9gdYx-153" value="-joueur1: String" style="text;strokeColor=none;fillColor=none;align=left;verticalAlign=top;spacingLeft=4;spacingRight=4;overflow=hidden;rotatable=0;points=[[0,0.5],[1,0.5]];portConstraint=eastwest;whiteSpace=wrap;html=1;" parent="CBi6CfC0yBlEgaD9gdYx-109" vertex="1">
          <mxGeometry y="182" width="290" height="26" as="geometry" />
        </mxCell>
        <mxCell id="CBi6CfC0yBlEgaD9gdYx-157" value="-joueur2: String" style="text;strokeColor=none;fillColor=none;align=left;verticalAlign=top;spacingLeft=4;spacingRight=4;overflow=hidden;rotatable=0;points=[[0,0.5],[1,0.5]];portConstraint=eastwest;whiteSpace=wrap;html=1;" parent="CBi6CfC0yBlEgaD9gdYx-109" vertex="1">
          <mxGeometry y="208" width="290" height="26" as="geometry" />
        </mxCell>
        <mxCell id="CBi6CfC0yBlEgaD9gdYx-158" value="-tour: String" style="text;strokeColor=none;fillColor=none;align=left;verticalAlign=top;spacingLeft=4;spacingRight=4;overflow=hidden;rotatable=0;points=[[0,0.5],[1,0.5]];portConstraint=eastwest;whiteSpace=wrap;html=1;" parent="CBi6CfC0yBlEgaD9gdYx-109" vertex="1">
          <mxGeometry y="234" width="290" height="26" as="geometry" />
        </mxCell>
        <mxCell id="CBi6CfC0yBlEgaD9gdYx-112" value="" style="line;strokeWidth=1;fillColor=none;align=left;verticalAlign=middle;spacingTop=-1;spacingLeft=3;spacingRight=3;rotatable=0;labelPosition=right;points=[];portConstraint=eastwest;strokeColor=inherit;" parent="CBi6CfC0yBlEgaD9gdYx-109" vertex="1">
          <mxGeometry y="260" width="290" height="8" as="geometry" />
        </mxCell>
        <mxCell id="CBi6CfC0yBlEgaD9gdYx-159" value="-button1_Click()" style="text;strokeColor=none;fillColor=none;align=left;verticalAlign=top;spacingLeft=4;spacingRight=4;overflow=hidden;rotatable=0;points=[[0,0.5],[1,0.5]];portConstraint=eastwest;whiteSpace=wrap;html=1;" parent="CBi6CfC0yBlEgaD9gdYx-109" vertex="1">
          <mxGeometry y="268" width="290" height="26" as="geometry" />
        </mxCell>
        <mxCell id="CBi6CfC0yBlEgaD9gdYx-160" value="- button2_Click()" style="text;strokeColor=none;fillColor=none;align=left;verticalAlign=top;spacingLeft=4;spacingRight=4;overflow=hidden;rotatable=0;points=[[0,0.5],[1,0.5]];portConstraint=eastwest;whiteSpace=wrap;html=1;" parent="CBi6CfC0yBlEgaD9gdYx-109" vertex="1">
          <mxGeometry y="294" width="290" height="26" as="geometry" />
        </mxCell>
        <mxCell id="CBi6CfC0yBlEgaD9gdYx-163" value="-jouerCoup(int xDebut,int yDebut,int xFin,int yFin)" style="text;strokeColor=none;fillColor=none;align=left;verticalAlign=top;spacingLeft=4;spacingRight=4;overflow=hidden;rotatable=0;points=[[0,0.5],[1,0.5]];portConstraint=eastwest;whiteSpace=wrap;html=1;" parent="CBi6CfC0yBlEgaD9gdYx-109" vertex="1">
          <mxGeometry y="320" width="290" height="26" as="geometry" />
        </mxCell>
        <mxCell id="CBi6CfC0yBlEgaD9gdYx-162" value="-pictureBox1_Click()" style="text;strokeColor=none;fillColor=none;align=left;verticalAlign=top;spacingLeft=4;spacingRight=4;overflow=hidden;rotatable=0;points=[[0,0.5],[1,0.5]];portConstraint=eastwest;whiteSpace=wrap;html=1;" parent="CBi6CfC0yBlEgaD9gdYx-109" vertex="1">
          <mxGeometry y="346" width="290" height="26" as="geometry" />
        </mxCell>
        <mxCell id="CBi6CfC0yBlEgaD9gdYx-164" value="-pictureBox1_Paint()" style="text;strokeColor=none;fillColor=none;align=left;verticalAlign=top;spacingLeft=4;spacingRight=4;overflow=hidden;rotatable=0;points=[[0,0.5],[1,0.5]];portConstraint=eastwest;whiteSpace=wrap;html=1;" parent="CBi6CfC0yBlEgaD9gdYx-109" vertex="1">
          <mxGeometry y="372" width="290" height="26" as="geometry" />
        </mxCell>
        <mxCell id="CBi6CfC0yBlEgaD9gdYx-113" value="+estDeuxiemeClick(): bool" style="text;strokeColor=none;fillColor=none;align=left;verticalAlign=top;spacingLeft=4;spacingRight=4;overflow=hidden;rotatable=0;points=[[0,0.5],[1,0.5]];portConstraint=eastwest;whiteSpace=wrap;html=1;" parent="CBi6CfC0yBlEgaD9gdYx-109" vertex="1">
          <mxGeometry y="398" width="290" height="22" as="geometry" />
        </mxCell>
        <mxCell id="CBi6CfC0yBlEgaD9gdYx-161" value="+afficherPlateau(String plateau)" style="text;strokeColor=none;fillColor=none;align=left;verticalAlign=top;spacingLeft=4;spacingRight=4;overflow=hidden;rotatable=0;points=[[0,0.5],[1,0.5]];portConstraint=eastwest;whiteSpace=wrap;html=1;" parent="CBi6CfC0yBlEgaD9gdYx-109" vertex="1">
          <mxGeometry y="420" width="290" height="26" as="geometry" />
        </mxCell>
        <mxCell id="CBi6CfC0yBlEgaD9gdYx-120" value="FormJoueurs" style="swimlane;fontStyle=1;align=center;verticalAlign=top;childLayout=stackLayout;horizontal=1;startSize=26;horizontalStack=0;resizeParent=1;resizeParentMax=0;resizeLast=0;collapsible=1;marginBottom=0;whiteSpace=wrap;html=1;fillColor=#dae8fc;strokeColor=#6c8ebf;fillStyle=auto;gradientColor=#604FFF;gradientDirection=radial;" parent="1" vertex="1">
          <mxGeometry x="-630" y="-777" width="170" height="180" as="geometry" />
        </mxCell>
        <mxCell id="CBi6CfC0yBlEgaD9gdYx-151" value="- m_vue : Vue" style="text;strokeColor=none;fillColor=none;align=left;verticalAlign=top;spacingLeft=4;spacingRight=4;overflow=hidden;rotatable=0;points=[[0,0.5],[1,0.5]];portConstraint=eastwest;whiteSpace=wrap;html=1;" parent="CBi6CfC0yBlEgaD9gdYx-120" vertex="1">
          <mxGeometry y="26" width="170" height="26" as="geometry" />
        </mxCell>
        <mxCell id="CBi6CfC0yBlEgaD9gdYx-121" value="" style="line;strokeWidth=1;fillColor=none;align=left;verticalAlign=middle;spacingTop=-1;spacingLeft=3;spacingRight=3;rotatable=0;labelPosition=right;points=[];portConstraint=eastwest;strokeColor=inherit;" parent="CBi6CfC0yBlEgaD9gdYx-120" vertex="1">
          <mxGeometry y="52" width="170" height="8" as="geometry" />
        </mxCell>
        <mxCell id="CBi6CfC0yBlEgaD9gdYx-147" value="- button2_Click()" style="text;strokeColor=none;fillColor=none;align=left;verticalAlign=top;spacingLeft=4;spacingRight=4;overflow=hidden;rotatable=0;points=[[0,0.5],[1,0.5]];portConstraint=eastwest;whiteSpace=wrap;html=1;" parent="CBi6CfC0yBlEgaD9gdYx-120" vertex="1">
          <mxGeometry y="60" width="170" height="26" as="geometry" />
        </mxCell>
        <mxCell id="CBi6CfC0yBlEgaD9gdYx-148" value="- button1_Click()" style="text;strokeColor=none;fillColor=none;align=left;verticalAlign=top;spacingLeft=4;spacingRight=4;overflow=hidden;rotatable=0;points=[[0,0.5],[1,0.5]];portConstraint=eastwest;whiteSpace=wrap;html=1;" parent="CBi6CfC0yBlEgaD9gdYx-120" vertex="1">
          <mxGeometry y="86" width="170" height="26" as="geometry" />
        </mxCell>
        <mxCell id="CBi6CfC0yBlEgaD9gdYx-150" value="- button3_Click()" style="text;strokeColor=none;fillColor=none;align=left;verticalAlign=top;spacingLeft=4;spacingRight=4;overflow=hidden;rotatable=0;points=[[0,0.5],[1,0.5]];portConstraint=eastwest;whiteSpace=wrap;html=1;" parent="CBi6CfC0yBlEgaD9gdYx-120" vertex="1">
          <mxGeometry y="112" width="170" height="26" as="geometry" />
        </mxCell>
        <mxCell id="CBi6CfC0yBlEgaD9gdYx-149" value="+afficherListeJoueurs(String joueurs)" style="text;strokeColor=none;fillColor=none;align=left;verticalAlign=top;spacingLeft=4;spacingRight=4;overflow=hidden;rotatable=0;points=[[0,0.5],[1,0.5]];portConstraint=eastwest;whiteSpace=wrap;html=1;" parent="CBi6CfC0yBlEgaD9gdYx-120" vertex="1">
          <mxGeometry y="138" width="170" height="42" as="geometry" />
        </mxCell>
        <mxCell id="CBi6CfC0yBlEgaD9gdYx-125" value="1" style="text;html=1;align=center;verticalAlign=middle;resizable=0;points=[];autosize=1;strokeColor=none;fillColor=none;" parent="1" vertex="1">
          <mxGeometry x="-110" y="-330" width="30" height="30" as="geometry" />
        </mxCell>
        <mxCell id="CBi6CfC0yBlEgaD9gdYx-126" value="n" style="text;html=1;align=center;verticalAlign=middle;resizable=0;points=[];autosize=1;strokeColor=none;fillColor=none;" parent="1" vertex="1">
          <mxGeometry x="-40" y="-442" width="30" height="30" as="geometry" />
        </mxCell>
        <mxCell id="CBi6CfC0yBlEgaD9gdYx-127" value="Vue" style="swimlane;fontStyle=1;align=center;verticalAlign=top;childLayout=stackLayout;horizontal=1;startSize=26;horizontalStack=0;resizeParent=1;resizeParentMax=0;resizeLast=0;collapsible=1;marginBottom=0;whiteSpace=wrap;html=1;fillColor=#dae8fc;strokeColor=#6c8ebf;fillStyle=auto;gradientColor=#604FFF;gradientDirection=radial;" parent="1" vertex="1">
          <mxGeometry x="-435" y="-455" width="310" height="500" as="geometry" />
        </mxCell>
        <mxCell id="CBi6CfC0yBlEgaD9gdYx-128" value="-m_controlleur:JeuEchec" style="text;strokeColor=none;fillColor=none;align=left;verticalAlign=top;spacingLeft=4;spacingRight=4;overflow=hidden;rotatable=0;points=[[0,0.5],[1,0.5]];portConstraint=eastwest;whiteSpace=wrap;html=1;" parent="CBi6CfC0yBlEgaD9gdYx-127" vertex="1">
          <mxGeometry y="26" width="310" height="26" as="geometry" />
        </mxCell>
        <mxCell id="CBi6CfC0yBlEgaD9gdYx-167" value="-m_menu:FormMenu" style="text;strokeColor=none;fillColor=none;align=left;verticalAlign=top;spacingLeft=4;spacingRight=4;overflow=hidden;rotatable=0;points=[[0,0.5],[1,0.5]];portConstraint=eastwest;whiteSpace=wrap;html=1;" parent="CBi6CfC0yBlEgaD9gdYx-127" vertex="1">
          <mxGeometry y="52" width="310" height="26" as="geometry" />
        </mxCell>
        <mxCell id="CBi6CfC0yBlEgaD9gdYx-166" value="-parties:List&amp;lt;FormPartie&amp;gt;" style="text;strokeColor=none;fillColor=none;align=left;verticalAlign=top;spacingLeft=4;spacingRight=4;overflow=hidden;rotatable=0;points=[[0,0.5],[1,0.5]];portConstraint=eastwest;whiteSpace=wrap;html=1;" parent="CBi6CfC0yBlEgaD9gdYx-127" vertex="1">
          <mxGeometry y="78" width="310" height="26" as="geometry" />
        </mxCell>
        <mxCell id="CBi6CfC0yBlEgaD9gdYx-168" value="-listeJoueurs:FormJoueurs" style="text;strokeColor=none;fillColor=none;align=left;verticalAlign=top;spacingLeft=4;spacingRight=4;overflow=hidden;rotatable=0;points=[[0,0.5],[1,0.5]];portConstraint=eastwest;whiteSpace=wrap;html=1;" parent="CBi6CfC0yBlEgaD9gdYx-127" vertex="1">
          <mxGeometry y="104" width="310" height="26" as="geometry" />
        </mxCell>
        <mxCell id="CBi6CfC0yBlEgaD9gdYx-165" value="-selectionJoueursForm:FormSelectionjoueurs" style="text;strokeColor=none;fillColor=none;align=left;verticalAlign=top;spacingLeft=4;spacingRight=4;overflow=hidden;rotatable=0;points=[[0,0.5],[1,0.5]];portConstraint=eastwest;whiteSpace=wrap;html=1;" parent="CBi6CfC0yBlEgaD9gdYx-127" vertex="1">
          <mxGeometry y="130" width="310" height="26" as="geometry" />
        </mxCell>
        <mxCell id="CBi6CfC0yBlEgaD9gdYx-129" value="" style="line;strokeWidth=1;fillColor=none;align=left;verticalAlign=middle;spacingTop=-1;spacingLeft=3;spacingRight=3;rotatable=0;labelPosition=right;points=[];portConstraint=eastwest;strokeColor=inherit;" parent="CBi6CfC0yBlEgaD9gdYx-127" vertex="1">
          <mxGeometry y="156" width="310" height="8" as="geometry" />
        </mxCell>
        <mxCell id="CBi6CfC0yBlEgaD9gdYx-130" value="+start()" style="text;strokeColor=none;fillColor=none;align=left;verticalAlign=top;spacingLeft=4;spacingRight=4;overflow=hidden;rotatable=0;points=[[0,0.5],[1,0.5]];portConstraint=eastwest;whiteSpace=wrap;html=1;" parent="CBi6CfC0yBlEgaD9gdYx-127" vertex="1">
          <mxGeometry y="164" width="310" height="22" as="geometry" />
        </mxCell>
        <mxCell id="CBi6CfC0yBlEgaD9gdYx-169" value="+nouvellePartie(Guid partieId,String pieces,String player1,String player2)" style="text;strokeColor=none;fillColor=none;align=left;verticalAlign=top;spacingLeft=4;spacingRight=4;overflow=hidden;rotatable=0;points=[[0,0.5],[1,0.5]];portConstraint=eastwest;whiteSpace=wrap;html=1;" parent="CBi6CfC0yBlEgaD9gdYx-127" vertex="1">
          <mxGeometry y="186" width="310" height="34" as="geometry" />
        </mxCell>
        <mxCell id="CBi6CfC0yBlEgaD9gdYx-170" value="+nouvellePartie(String joueur1,String joueur2)" style="text;strokeColor=none;fillColor=none;align=left;verticalAlign=top;spacingLeft=4;spacingRight=4;overflow=hidden;rotatable=0;points=[[0,0.5],[1,0.5]];portConstraint=eastwest;whiteSpace=wrap;html=1;" parent="CBi6CfC0yBlEgaD9gdYx-127" vertex="1">
          <mxGeometry y="220" width="310" height="26" as="geometry" />
        </mxCell>
        <mxCell id="CBi6CfC0yBlEgaD9gdYx-171" value="+selectionJoueurs(Guid guid,String joueurs)" style="text;strokeColor=none;fillColor=none;align=left;verticalAlign=top;spacingLeft=4;spacingRight=4;overflow=hidden;rotatable=0;points=[[0,0.5],[1,0.5]];portConstraint=eastwest;whiteSpace=wrap;html=1;" parent="CBi6CfC0yBlEgaD9gdYx-127" vertex="1">
          <mxGeometry y="246" width="310" height="26" as="geometry" />
        </mxCell>
        <mxCell id="CBi6CfC0yBlEgaD9gdYx-172" value="+selectionJoueurs()" style="text;strokeColor=none;fillColor=none;align=left;verticalAlign=top;spacingLeft=4;spacingRight=4;overflow=hidden;rotatable=0;points=[[0,0.5],[1,0.5]];portConstraint=eastwest;whiteSpace=wrap;html=1;" parent="CBi6CfC0yBlEgaD9gdYx-127" vertex="1">
          <mxGeometry y="272" width="310" height="26" as="geometry" />
        </mxCell>
        <mxCell id="CBi6CfC0yBlEgaD9gdYx-173" value="+listeDeJoueurs()" style="text;strokeColor=none;fillColor=none;align=left;verticalAlign=top;spacingLeft=4;spacingRight=4;overflow=hidden;rotatable=0;points=[[0,0.5],[1,0.5]];portConstraint=eastwest;whiteSpace=wrap;html=1;" parent="CBi6CfC0yBlEgaD9gdYx-127" vertex="1">
          <mxGeometry y="298" width="310" height="26" as="geometry" />
        </mxCell>
        <mxCell id="CBi6CfC0yBlEgaD9gdYx-174" value="+ajouterJoueur(String nom,int Elo):String" style="text;strokeColor=none;fillColor=none;align=left;verticalAlign=top;spacingLeft=4;spacingRight=4;overflow=hidden;rotatable=0;points=[[0,0.5],[1,0.5]];portConstraint=eastwest;whiteSpace=wrap;html=1;" parent="CBi6CfC0yBlEgaD9gdYx-127" vertex="1">
          <mxGeometry y="324" width="310" height="26" as="geometry" />
        </mxCell>
        <mxCell id="CBi6CfC0yBlEgaD9gdYx-175" value="+supprimerJoueur(String nom):String" style="text;strokeColor=none;fillColor=none;align=left;verticalAlign=top;spacingLeft=4;spacingRight=4;overflow=hidden;rotatable=0;points=[[0,0.5],[1,0.5]];portConstraint=eastwest;whiteSpace=wrap;html=1;" parent="CBi6CfC0yBlEgaD9gdYx-127" vertex="1">
          <mxGeometry y="350" width="310" height="26" as="geometry" />
        </mxCell>
        <mxCell id="CBi6CfC0yBlEgaD9gdYx-176" value="+jouerCoup(int xDebut,int yDebut,int xFin, int yFin, Guid guid):String" style="text;strokeColor=none;fillColor=none;align=left;verticalAlign=top;spacingLeft=4;spacingRight=4;overflow=hidden;rotatable=0;points=[[0,0.5],[1,0.5]];portConstraint=eastwest;whiteSpace=wrap;html=1;" parent="CBi6CfC0yBlEgaD9gdYx-127" vertex="1">
          <mxGeometry y="376" width="310" height="34" as="geometry" />
        </mxCell>
        <mxCell id="CBi6CfC0yBlEgaD9gdYx-177" value="+coupPossibles(int xDebut, int yDebut,Guid guid):String" style="text;strokeColor=none;fillColor=none;align=left;verticalAlign=top;spacingLeft=4;spacingRight=4;overflow=hidden;rotatable=0;points=[[0,0.5],[1,0.5]];portConstraint=eastwest;whiteSpace=wrap;html=1;" parent="CBi6CfC0yBlEgaD9gdYx-127" vertex="1">
          <mxGeometry y="410" width="310" height="26" as="geometry" />
        </mxCell>
        <mxCell id="CBi6CfC0yBlEgaD9gdYx-178" value="+finPartie(String joueur1,String joueur2,String resultat)" style="text;strokeColor=none;fillColor=none;align=left;verticalAlign=top;spacingLeft=4;spacingRight=4;overflow=hidden;rotatable=0;points=[[0,0.5],[1,0.5]];portConstraint=eastwest;whiteSpace=wrap;html=1;" parent="CBi6CfC0yBlEgaD9gdYx-127" vertex="1">
          <mxGeometry y="436" width="310" height="26" as="geometry" />
        </mxCell>
        <mxCell id="CBi6CfC0yBlEgaD9gdYx-179" value="+modifierNomJoueur(String ancienNom,String nouveauNom):String" style="text;strokeColor=none;fillColor=none;align=left;verticalAlign=top;spacingLeft=4;spacingRight=4;overflow=hidden;rotatable=0;points=[[0,0.5],[1,0.5]];portConstraint=eastwest;whiteSpace=wrap;html=1;" parent="CBi6CfC0yBlEgaD9gdYx-127" vertex="1">
          <mxGeometry y="462" width="310" height="38" as="geometry" />
        </mxCell>
        <mxCell id="CBi6CfC0yBlEgaD9gdYx-131" value="1" style="endArrow=diamondThin;endFill=1;endSize=24;html=1;rounded=0;entryX=0.5;entryY=0;entryDx=0;entryDy=0;strokeWidth=2;exitX=0.348;exitY=0.94;exitDx=0;exitDy=0;exitPerimeter=0;" parent="1" source="CBi6CfC0yBlEgaD9gdYx-179" target="CBi6CfC0yBlEgaD9gdYx-1" edge="1">
          <mxGeometry x="0.8639" y="-30" width="160" relative="1" as="geometry">
            <mxPoint x="-290" y="50" as="sourcePoint" />
            <mxPoint x="-250" y="-129" as="targetPoint" />
            <mxPoint as="offset" />
          </mxGeometry>
        </mxCell>
        <mxCell id="CBi6CfC0yBlEgaD9gdYx-132" value="1" style="edgeLabel;html=1;align=center;verticalAlign=middle;resizable=0;points=[];" parent="CBi6CfC0yBlEgaD9gdYx-131" vertex="1" connectable="0">
          <mxGeometry x="-0.6918" y="2" relative="1" as="geometry">
            <mxPoint x="-22" y="-19" as="offset" />
          </mxGeometry>
        </mxCell>
        <mxCell id="CBi6CfC0yBlEgaD9gdYx-133" style="edgeStyle=orthogonalEdgeStyle;rounded=0;orthogonalLoop=1;jettySize=auto;html=1;exitX=0;exitY=0.5;exitDx=0;exitDy=0;entryX=1.005;entryY=0.167;entryDx=0;entryDy=0;entryPerimeter=0;endArrow=diamondThin;endFill=1;endSize=11;" parent="1" source="CBi6CfC0yBlEgaD9gdYx-105" target="CBi6CfC0yBlEgaD9gdYx-130" edge="1">
          <mxGeometry relative="1" as="geometry" />
        </mxCell>
        <mxCell id="CBi6CfC0yBlEgaD9gdYx-134" style="edgeStyle=orthogonalEdgeStyle;rounded=0;orthogonalLoop=1;jettySize=auto;html=1;exitX=1;exitY=0.5;exitDx=0;exitDy=0;endArrow=diamondThin;endFill=1;endSize=10;entryX=0.5;entryY=0;entryDx=0;entryDy=0;" parent="1" target="CBi6CfC0yBlEgaD9gdYx-127" edge="1">
          <mxGeometry relative="1" as="geometry">
            <mxPoint x="-460" y="-678.0000000000002" as="sourcePoint" />
            <mxPoint x="-280" y="-490" as="targetPoint" />
          </mxGeometry>
        </mxCell>
        <mxCell id="CBi6CfC0yBlEgaD9gdYx-135" value="1" style="text;html=1;align=center;verticalAlign=middle;resizable=0;points=[];autosize=1;strokeColor=none;fillColor=none;" parent="1" vertex="1">
          <mxGeometry x="-320" y="-485" width="30" height="30" as="geometry" />
        </mxCell>
        <mxCell id="CBi6CfC0yBlEgaD9gdYx-136" value="n" style="text;html=1;align=center;verticalAlign=middle;resizable=0;points=[];autosize=1;strokeColor=none;fillColor=none;" parent="1" vertex="1">
          <mxGeometry x="-460" y="-705" width="30" height="30" as="geometry" />
        </mxCell>
        <mxCell id="CBi6CfC0yBlEgaD9gdYx-137" style="edgeStyle=orthogonalEdgeStyle;rounded=0;orthogonalLoop=1;jettySize=auto;html=1;entryX=0;entryY=0.5;entryDx=0;entryDy=0;endArrow=diamondThin;endFill=1;endSize=10;" parent="1" target="CBi6CfC0yBlEgaD9gdYx-130" edge="1">
          <mxGeometry relative="1" as="geometry">
            <mxPoint x="-810" y="-280" as="sourcePoint" />
            <mxPoint x="-530" y="-359" as="targetPoint" />
            <Array as="points">
              <mxPoint x="-850" y="-280" />
            </Array>
          </mxGeometry>
        </mxCell>
        <mxCell id="CBi6CfC0yBlEgaD9gdYx-138" value="1" style="text;html=1;align=center;verticalAlign=middle;resizable=0;points=[];autosize=1;strokeColor=none;fillColor=none;" parent="1" vertex="1">
          <mxGeometry x="-490" y="-320" width="30" height="30" as="geometry" />
        </mxCell>
        <mxCell id="CBi6CfC0yBlEgaD9gdYx-139" value="n" style="text;html=1;align=center;verticalAlign=middle;resizable=0;points=[];autosize=1;strokeColor=none;fillColor=none;" parent="1" vertex="1">
          <mxGeometry x="-827" y="-320" width="30" height="30" as="geometry" />
        </mxCell>
        <mxCell id="CBi6CfC0yBlEgaD9gdYx-142" value="" style="endArrow=none;html=1;rounded=0;exitX=0.5;exitY=0;exitDx=0;exitDy=0;strokeWidth=2;edgeStyle=orthogonalEdgeStyle;" parent="1" source="CBi6CfC0yBlEgaD9gdYx-61" edge="1">
          <mxGeometry width="50" height="50" relative="1" as="geometry">
            <mxPoint x="1040" y="865" as="sourcePoint" />
            <mxPoint x="1030" y="655" as="targetPoint" />
            <Array as="points">
              <mxPoint x="1025" y="910" />
              <mxPoint x="1030" y="910" />
            </Array>
          </mxGeometry>
        </mxCell>
        <mxCell id="CBi6CfC0yBlEgaD9gdYx-143" value="" style="endArrow=none;html=1;rounded=0;exitX=0.5;exitY=0;exitDx=0;exitDy=0;strokeWidth=2;edgeStyle=orthogonalEdgeStyle;" parent="1" source="CBi6CfC0yBlEgaD9gdYx-53" edge="1">
          <mxGeometry width="50" height="50" relative="1" as="geometry">
            <mxPoint x="1031.25" y="869" as="sourcePoint" />
            <mxPoint x="1030.25" y="620" as="targetPoint" />
          </mxGeometry>
        </mxCell>
        <mxCell id="CBi6CfC0yBlEgaD9gdYx-144" value="" style="endArrow=none;html=1;rounded=0;exitX=0.5;exitY=0;exitDx=0;exitDy=0;strokeWidth=2;edgeStyle=orthogonalEdgeStyle;" parent="1" source="CBi6CfC0yBlEgaD9gdYx-64" edge="1">
          <mxGeometry width="50" height="50" relative="1" as="geometry">
            <mxPoint x="1051" y="924" as="sourcePoint" />
            <mxPoint x="1030" y="635" as="targetPoint" />
            <Array as="points">
              <mxPoint x="1140" y="680" />
              <mxPoint x="1030" y="680" />
            </Array>
          </mxGeometry>
        </mxCell>
        <mxCell id="CBi6CfC0yBlEgaD9gdYx-145" value="" style="endArrow=none;html=1;rounded=0;exitX=0.5;exitY=0;exitDx=0;exitDy=0;strokeWidth=2;edgeStyle=orthogonalEdgeStyle;" parent="1" source="CBi6CfC0yBlEgaD9gdYx-59" edge="1">
          <mxGeometry width="50" height="50" relative="1" as="geometry">
            <mxPoint x="1061" y="934" as="sourcePoint" />
            <mxPoint x="1030" y="645" as="targetPoint" />
            <Array as="points">
              <mxPoint x="1245" y="915" />
              <mxPoint x="1030" y="915" />
            </Array>
          </mxGeometry>
        </mxCell>
        <mxCell id="CBi6CfC0yBlEgaD9gdYx-146" value="" style="endArrow=none;html=1;rounded=0;exitX=0.5;exitY=0;exitDx=0;exitDy=0;strokeWidth=2;edgeStyle=orthogonalEdgeStyle;" parent="1" source="CBi6CfC0yBlEgaD9gdYx-55" edge="1">
          <mxGeometry width="50" height="50" relative="1" as="geometry">
            <mxPoint x="1071" y="944" as="sourcePoint" />
            <mxPoint x="1030" y="655" as="targetPoint" />
            <Array as="points">
              <mxPoint x="805" y="915" />
              <mxPoint x="1030" y="915" />
            </Array>
          </mxGeometry>
        </mxCell>
        <mxCell id="CBi6CfC0yBlEgaD9gdYx-276" value="FormSelectionjoueurs" style="swimlane;fontStyle=1;align=center;verticalAlign=top;childLayout=stackLayout;horizontal=1;startSize=26;horizontalStack=0;resizeParent=1;resizeParentMax=0;resizeLast=0;collapsible=1;marginBottom=0;whiteSpace=wrap;html=1;fillColor=#dae8fc;strokeColor=#6c8ebf;fillStyle=auto;gradientColor=#604FFF;gradientDirection=radial;" parent="1" vertex="1">
          <mxGeometry x="-130" y="-777" width="170" height="146" as="geometry" />
        </mxCell>
        <mxCell id="CBi6CfC0yBlEgaD9gdYx-283" value="-m_guid:Vue" style="text;strokeColor=none;fillColor=none;align=left;verticalAlign=top;spacingLeft=4;spacingRight=4;overflow=hidden;rotatable=0;points=[[0,0.5],[1,0.5]];portConstraint=eastwest;whiteSpace=wrap;html=1;" parent="CBi6CfC0yBlEgaD9gdYx-276" vertex="1">
          <mxGeometry y="26" width="170" height="26" as="geometry" />
        </mxCell>
        <mxCell id="CBi6CfC0yBlEgaD9gdYx-277" value="- m_vue : Vue" style="text;strokeColor=none;fillColor=none;align=left;verticalAlign=top;spacingLeft=4;spacingRight=4;overflow=hidden;rotatable=0;points=[[0,0.5],[1,0.5]];portConstraint=eastwest;whiteSpace=wrap;html=1;" parent="CBi6CfC0yBlEgaD9gdYx-276" vertex="1">
          <mxGeometry y="52" width="170" height="26" as="geometry" />
        </mxCell>
        <mxCell id="CBi6CfC0yBlEgaD9gdYx-278" value="" style="line;strokeWidth=1;fillColor=none;align=left;verticalAlign=middle;spacingTop=-1;spacingLeft=3;spacingRight=3;rotatable=0;labelPosition=right;points=[];portConstraint=eastwest;strokeColor=inherit;" parent="CBi6CfC0yBlEgaD9gdYx-276" vertex="1">
          <mxGeometry y="78" width="170" height="8" as="geometry" />
        </mxCell>
        <mxCell id="CBi6CfC0yBlEgaD9gdYx-284" value="+afficherListeJoueurs(String joueurs)" style="text;strokeColor=none;fillColor=none;align=left;verticalAlign=top;spacingLeft=4;spacingRight=4;overflow=hidden;rotatable=0;points=[[0,0.5],[1,0.5]];portConstraint=eastwest;whiteSpace=wrap;html=1;" parent="CBi6CfC0yBlEgaD9gdYx-276" vertex="1">
          <mxGeometry y="86" width="170" height="34" as="geometry" />
        </mxCell>
        <mxCell id="CBi6CfC0yBlEgaD9gdYx-279" value="- button1_Click()" style="text;strokeColor=none;fillColor=none;align=left;verticalAlign=top;spacingLeft=4;spacingRight=4;overflow=hidden;rotatable=0;points=[[0,0.5],[1,0.5]];portConstraint=eastwest;whiteSpace=wrap;html=1;" parent="CBi6CfC0yBlEgaD9gdYx-276" vertex="1">
          <mxGeometry y="120" width="170" height="26" as="geometry" />
        </mxCell>
        <mxCell id="CBi6CfC0yBlEgaD9gdYx-285" style="edgeStyle=orthogonalEdgeStyle;rounded=0;orthogonalLoop=1;jettySize=auto;html=1;endArrow=diamondThin;endFill=1;endSize=10;entryX=0.5;entryY=0;entryDx=0;entryDy=0;exitX=0;exitY=0.5;exitDx=0;exitDy=0;" parent="1" source="CBi6CfC0yBlEgaD9gdYx-284" target="CBi6CfC0yBlEgaD9gdYx-127" edge="1">
          <mxGeometry relative="1" as="geometry">
            <mxPoint x="-150" y="-680" as="sourcePoint" />
            <mxPoint x="-170" y="-470" as="targetPoint" />
            <Array as="points">
              <mxPoint x="-280" y="-678" />
            </Array>
          </mxGeometry>
        </mxCell>
        <mxCell id="CBi6CfC0yBlEgaD9gdYx-288" value="n" style="text;html=1;align=center;verticalAlign=middle;resizable=0;points=[];autosize=1;strokeColor=none;fillColor=none;" parent="1" vertex="1">
          <mxGeometry x="-170" y="-710" width="30" height="30" as="geometry" />
        </mxCell>
        <mxCell id="Jj5W_WK3f6zKs74hFXm6-4" value="1" style="text;html=1;align=center;verticalAlign=middle;resizable=0;points=[];autosize=1;strokeColor=none;fillColor=none;fontSize=14;" vertex="1" parent="1">
          <mxGeometry x="540" y="765" width="30" height="30" as="geometry" />
        </mxCell>
      </root>
    </mxGraphModel>
  </diagram>
</mxfile>
